<mxfile host="Electron" agent="Mozilla/5.0 (Windows NT 10.0; Win64; x64) AppleWebKit/537.36 (KHTML, like Gecko) draw.io/24.7.17 Chrome/128.0.6613.36 Electron/32.0.1 Safari/537.36" version="24.7.17">
  <diagram name="Страница — 1" id="8xlfoT2T97AudPB6fevg">
    <mxGraphModel dx="2100" dy="1242" grid="1" gridSize="10" guides="1" tooltips="1" connect="1" arrows="1" fold="1" page="1" pageScale="1" pageWidth="827" pageHeight="1169" math="0" shadow="0">
      <root>
        <mxCell id="0" />
        <mxCell id="1" parent="0" />
        <mxCell id="B0XCf1iE3_aSpV2wBJrI-1" value="&lt;font style=&quot;font-size: 14px;&quot; face=&quot;Times New Roman&quot;&gt;Начало&lt;/font&gt;" style="ellipse;whiteSpace=wrap;html=1;" vertex="1" parent="1">
          <mxGeometry x="320" width="200" height="40" as="geometry" />
        </mxCell>
        <mxCell id="B0XCf1iE3_aSpV2wBJrI-2" value="" style="endArrow=classic;html=1;rounded=0;" edge="1" parent="1">
          <mxGeometry width="50" height="50" relative="1" as="geometry">
            <mxPoint x="420" y="40" as="sourcePoint" />
            <mxPoint x="420" y="80" as="targetPoint" />
          </mxGeometry>
        </mxCell>
        <mxCell id="B0XCf1iE3_aSpV2wBJrI-3" value="&lt;div style=&quot;font-size: 14px;&quot;&gt;&lt;font style=&quot;font-size: 14px;&quot; face=&quot;Times New Roman&quot;&gt;string filePath = Path.Combine(AppDomain.&lt;/font&gt;&lt;/div&gt;&lt;div style=&quot;font-size: 14px;&quot;&gt;&lt;font style=&quot;font-size: 14px;&quot; face=&quot;Times New Roman&quot;&gt;CurrentDomain.BaseDirectory, &quot;reals.txt&quot;);&lt;/font&gt;&lt;/div&gt;&lt;div style=&quot;font-size: 14px;&quot;&gt;&lt;font style=&quot;font-size: 14px;&quot; face=&quot;iWCxAUtWFluLYWqsoltx&quot;&gt;string[] menuOptions = { &quot;Чтение файла&quot;, &quot;Выход&quot; };&lt;/font&gt;&lt;/div&gt;&lt;div style=&quot;font-size: 14px;&quot;&gt;&lt;font style=&quot;font-size: 14px;&quot; face=&quot;iWCxAUtWFluLYWqsoltx&quot;&gt;int selectedIndex = 0;&lt;/font&gt;&lt;/div&gt;&lt;div style=&quot;font-size: 14px;&quot;&gt;&lt;font style=&quot;font-size: 14px;&quot; face=&quot;iWCxAUtWFluLYWqsoltx&quot;&gt;bool exit = false;&lt;/font&gt;&lt;/div&gt;" style="rounded=0;whiteSpace=wrap;html=1;" vertex="1" parent="1">
          <mxGeometry x="320" y="80" width="200" height="140" as="geometry" />
        </mxCell>
        <mxCell id="B0XCf1iE3_aSpV2wBJrI-4" value="" style="endArrow=classic;html=1;rounded=0;" edge="1" parent="1">
          <mxGeometry width="50" height="50" relative="1" as="geometry">
            <mxPoint x="420" y="220" as="sourcePoint" />
            <mxPoint x="420" y="240" as="targetPoint" />
          </mxGeometry>
        </mxCell>
        <mxCell id="B0XCf1iE3_aSpV2wBJrI-7" value="&lt;font style=&quot;font-size: 14px;&quot; face=&quot;Times New Roman&quot;&gt;!exit&lt;/font&gt;" style="rhombus;whiteSpace=wrap;html=1;" vertex="1" parent="1">
          <mxGeometry x="320" y="240" width="200" height="40" as="geometry" />
        </mxCell>
        <mxCell id="B0XCf1iE3_aSpV2wBJrI-8" value="" style="endArrow=classic;html=1;rounded=0;" edge="1" parent="1">
          <mxGeometry width="50" height="50" relative="1" as="geometry">
            <mxPoint x="420" y="280" as="sourcePoint" />
            <mxPoint x="420" y="300" as="targetPoint" />
          </mxGeometry>
        </mxCell>
        <mxCell id="B0XCf1iE3_aSpV2wBJrI-9" value="&lt;div style=&quot;&quot;&gt;&lt;font face=&quot;Times New Roman&quot;&gt;&lt;span style=&quot;font-size: 14px;&quot;&gt;Console.Clear();&lt;/span&gt;&lt;/font&gt;&lt;br&gt;&lt;/div&gt;" style="rounded=0;whiteSpace=wrap;html=1;" vertex="1" parent="1">
          <mxGeometry x="320" y="300" width="200" height="20" as="geometry" />
        </mxCell>
        <mxCell id="B0XCf1iE3_aSpV2wBJrI-10" value="" style="endArrow=classic;html=1;rounded=0;" edge="1" parent="1">
          <mxGeometry width="50" height="50" relative="1" as="geometry">
            <mxPoint x="419.72" y="320" as="sourcePoint" />
            <mxPoint x="419.72" y="340" as="targetPoint" />
          </mxGeometry>
        </mxCell>
        <mxCell id="B0XCf1iE3_aSpV2wBJrI-11" value="&lt;font face=&quot;Times New Roman&quot;&gt;int i = 0; i &amp;lt; menuOptions.Length; i++&lt;/font&gt;" style="shape=hexagon;perimeter=hexagonPerimeter2;whiteSpace=wrap;html=1;fixedSize=1;" vertex="1" parent="1">
          <mxGeometry x="320" y="340" width="200" height="20" as="geometry" />
        </mxCell>
        <mxCell id="B0XCf1iE3_aSpV2wBJrI-12" value="" style="endArrow=classic;html=1;rounded=0;" edge="1" parent="1">
          <mxGeometry width="50" height="50" relative="1" as="geometry">
            <mxPoint x="419.72" y="360" as="sourcePoint" />
            <mxPoint x="419.72" y="380" as="targetPoint" />
          </mxGeometry>
        </mxCell>
        <mxCell id="B0XCf1iE3_aSpV2wBJrI-13" value="&lt;font face=&quot;Times New Roman&quot;&gt;&lt;span style=&quot;font-size: 14px;&quot;&gt;i == selectedIndex&lt;/span&gt;&lt;/font&gt;" style="rhombus;whiteSpace=wrap;html=1;" vertex="1" parent="1">
          <mxGeometry x="320" y="380" width="200" height="40" as="geometry" />
        </mxCell>
        <mxCell id="B0XCf1iE3_aSpV2wBJrI-14" value="" style="endArrow=classic;html=1;rounded=0;" edge="1" parent="1">
          <mxGeometry width="50" height="50" relative="1" as="geometry">
            <mxPoint x="419.72" y="420" as="sourcePoint" />
            <mxPoint x="419.72" y="440" as="targetPoint" />
          </mxGeometry>
        </mxCell>
        <mxCell id="B0XCf1iE3_aSpV2wBJrI-15" value="&lt;div style=&quot;&quot;&gt;&lt;font face=&quot;Times New Roman&quot;&gt;&lt;span style=&quot;font-size: 14px;&quot;&gt;Console.BackgroundColor = ConsoleColor.Red;&lt;/span&gt;&lt;/font&gt;&lt;br&gt;&lt;/div&gt;&lt;div style=&quot;&quot;&gt;&lt;font face=&quot;Times New Roman&quot;&gt;&lt;span style=&quot;font-size: 14px;&quot;&gt;Console.ForegroundColor = ConsoleColor.Black;&lt;/span&gt;&lt;br&gt;&lt;/font&gt;&lt;/div&gt;" style="rounded=0;whiteSpace=wrap;html=1;" vertex="1" parent="1">
          <mxGeometry x="320" y="440" width="200" height="80" as="geometry" />
        </mxCell>
        <mxCell id="B0XCf1iE3_aSpV2wBJrI-16" value="" style="endArrow=classic;html=1;rounded=0;" edge="1" parent="1">
          <mxGeometry width="50" height="50" relative="1" as="geometry">
            <mxPoint x="419.72" y="520" as="sourcePoint" />
            <mxPoint x="420" y="560" as="targetPoint" />
          </mxGeometry>
        </mxCell>
        <mxCell id="B0XCf1iE3_aSpV2wBJrI-17" value="" style="endArrow=none;html=1;rounded=0;" edge="1" parent="1">
          <mxGeometry width="50" height="50" relative="1" as="geometry">
            <mxPoint x="520" y="400" as="sourcePoint" />
            <mxPoint x="540" y="400" as="targetPoint" />
          </mxGeometry>
        </mxCell>
        <mxCell id="B0XCf1iE3_aSpV2wBJrI-18" value="" style="endArrow=none;html=1;rounded=0;" edge="1" parent="1">
          <mxGeometry width="50" height="50" relative="1" as="geometry">
            <mxPoint x="540" y="400" as="sourcePoint" />
            <mxPoint x="540" y="540" as="targetPoint" />
          </mxGeometry>
        </mxCell>
        <mxCell id="B0XCf1iE3_aSpV2wBJrI-19" value="" style="endArrow=classic;html=1;rounded=0;" edge="1" parent="1">
          <mxGeometry width="50" height="50" relative="1" as="geometry">
            <mxPoint x="540" y="540" as="sourcePoint" />
            <mxPoint x="420" y="540" as="targetPoint" />
          </mxGeometry>
        </mxCell>
        <mxCell id="B0XCf1iE3_aSpV2wBJrI-20" value="&lt;div style=&quot;&quot;&gt;&lt;font face=&quot;Times New Roman&quot;&gt;&lt;span style=&quot;font-size: 14px;&quot;&gt;Console.CursorLeft = Console.WindowWidth / 2 - menuOptions[i].Length / 2;&lt;/span&gt;&lt;/font&gt;&lt;br&gt;&lt;/div&gt;" style="rounded=0;whiteSpace=wrap;html=1;" vertex="1" parent="1">
          <mxGeometry x="320" y="560" width="200" height="60" as="geometry" />
        </mxCell>
        <mxCell id="B0XCf1iE3_aSpV2wBJrI-21" value="" style="endArrow=classic;html=1;rounded=0;" edge="1" parent="1">
          <mxGeometry width="50" height="50" relative="1" as="geometry">
            <mxPoint x="420" y="620" as="sourcePoint" />
            <mxPoint x="420" y="640" as="targetPoint" />
          </mxGeometry>
        </mxCell>
        <mxCell id="B0XCf1iE3_aSpV2wBJrI-22" value="&lt;div style=&quot;&quot;&gt;&lt;font face=&quot;Times New Roman&quot;&gt;&lt;span style=&quot;font-size: 14px;&quot;&gt;Console.CursorTop = Console.WindowHeight / 2 - menuOptions.Length + i * 2;&lt;/span&gt;&lt;/font&gt;&lt;br&gt;&lt;/div&gt;" style="rounded=0;whiteSpace=wrap;html=1;" vertex="1" parent="1">
          <mxGeometry x="320" y="640" width="200" height="60" as="geometry" />
        </mxCell>
        <mxCell id="B0XCf1iE3_aSpV2wBJrI-23" value="" style="endArrow=classic;html=1;rounded=0;" edge="1" parent="1">
          <mxGeometry width="50" height="50" relative="1" as="geometry">
            <mxPoint x="419.77" y="700" as="sourcePoint" />
            <mxPoint x="419.77" y="720" as="targetPoint" />
            <Array as="points">
              <mxPoint x="419.77" y="720" />
            </Array>
          </mxGeometry>
        </mxCell>
        <mxCell id="B0XCf1iE3_aSpV2wBJrI-24" value="&lt;div style=&quot;&quot;&gt;&lt;font face=&quot;Times New Roman&quot;&gt;&lt;span style=&quot;font-size: 14px;&quot;&gt;Console.WriteLine(menuOptions[i]);&lt;/span&gt;&lt;/font&gt;&lt;br&gt;&lt;/div&gt;" style="rounded=0;whiteSpace=wrap;html=1;" vertex="1" parent="1">
          <mxGeometry x="320" y="720" width="200" height="40" as="geometry" />
        </mxCell>
        <mxCell id="B0XCf1iE3_aSpV2wBJrI-25" value="" style="endArrow=classic;html=1;rounded=0;" edge="1" parent="1">
          <mxGeometry width="50" height="50" relative="1" as="geometry">
            <mxPoint x="419.77" y="760" as="sourcePoint" />
            <mxPoint x="419.77" y="780" as="targetPoint" />
            <Array as="points">
              <mxPoint x="419.77" y="780" />
            </Array>
          </mxGeometry>
        </mxCell>
        <mxCell id="B0XCf1iE3_aSpV2wBJrI-26" value="&lt;div style=&quot;&quot;&gt;&lt;font face=&quot;Times New Roman&quot;&gt;&lt;span style=&quot;font-size: 14px;&quot;&gt;Console.ResetColor();&lt;/span&gt;&lt;/font&gt;&lt;br&gt;&lt;/div&gt;" style="rounded=0;whiteSpace=wrap;html=1;" vertex="1" parent="1">
          <mxGeometry x="320" y="780" width="200" height="20" as="geometry" />
        </mxCell>
        <mxCell id="B0XCf1iE3_aSpV2wBJrI-27" value="" style="endArrow=none;html=1;rounded=0;" edge="1" parent="1">
          <mxGeometry width="50" height="50" relative="1" as="geometry">
            <mxPoint x="419.76" y="820" as="sourcePoint" />
            <mxPoint x="419.76" y="800" as="targetPoint" />
          </mxGeometry>
        </mxCell>
        <mxCell id="B0XCf1iE3_aSpV2wBJrI-28" value="" style="endArrow=none;html=1;rounded=0;" edge="1" parent="1">
          <mxGeometry width="50" height="50" relative="1" as="geometry">
            <mxPoint x="300" y="820" as="sourcePoint" />
            <mxPoint x="420" y="820" as="targetPoint" />
          </mxGeometry>
        </mxCell>
        <mxCell id="B0XCf1iE3_aSpV2wBJrI-29" value="" style="endArrow=none;html=1;rounded=0;" edge="1" parent="1">
          <mxGeometry width="50" height="50" relative="1" as="geometry">
            <mxPoint x="300" y="820" as="sourcePoint" />
            <mxPoint x="300" y="350" as="targetPoint" />
          </mxGeometry>
        </mxCell>
        <mxCell id="B0XCf1iE3_aSpV2wBJrI-30" value="" style="endArrow=classic;html=1;rounded=0;entryX=0;entryY=0.5;entryDx=0;entryDy=0;" edge="1" parent="1" target="B0XCf1iE3_aSpV2wBJrI-11">
          <mxGeometry width="50" height="50" relative="1" as="geometry">
            <mxPoint x="300" y="350" as="sourcePoint" />
            <mxPoint x="350" y="300" as="targetPoint" />
          </mxGeometry>
        </mxCell>
        <mxCell id="B0XCf1iE3_aSpV2wBJrI-31" value="" style="endArrow=none;html=1;rounded=0;" edge="1" parent="1">
          <mxGeometry width="50" height="50" relative="1" as="geometry">
            <mxPoint x="520" y="350" as="sourcePoint" />
            <mxPoint x="560" y="350" as="targetPoint" />
          </mxGeometry>
        </mxCell>
        <mxCell id="B0XCf1iE3_aSpV2wBJrI-32" value="" style="endArrow=none;html=1;rounded=0;" edge="1" parent="1">
          <mxGeometry width="50" height="50" relative="1" as="geometry">
            <mxPoint x="560" y="350" as="sourcePoint" />
            <mxPoint x="560" y="830.7441746911337" as="targetPoint" />
          </mxGeometry>
        </mxCell>
        <mxCell id="B0XCf1iE3_aSpV2wBJrI-33" value="" style="endArrow=none;html=1;rounded=0;" edge="1" parent="1">
          <mxGeometry width="50" height="50" relative="1" as="geometry">
            <mxPoint x="420" y="830" as="sourcePoint" />
            <mxPoint x="560" y="830" as="targetPoint" />
          </mxGeometry>
        </mxCell>
        <mxCell id="B0XCf1iE3_aSpV2wBJrI-34" value="" style="endArrow=classic;html=1;rounded=0;" edge="1" parent="1">
          <mxGeometry width="50" height="50" relative="1" as="geometry">
            <mxPoint x="419.76" y="830" as="sourcePoint" />
            <mxPoint x="419.76" y="860" as="targetPoint" />
          </mxGeometry>
        </mxCell>
        <mxCell id="B0XCf1iE3_aSpV2wBJrI-35" value="&lt;div style=&quot;&quot;&gt;&lt;font face=&quot;Times New Roman&quot;&gt;&lt;span style=&quot;font-size: 14px;&quot;&gt;var key = Console.ReadKey(true).Key;&lt;/span&gt;&lt;/font&gt;&lt;br&gt;&lt;/div&gt;&lt;div style=&quot;&quot;&gt;&lt;font face=&quot;Times New Roman&quot;&gt;&lt;span style=&quot;font-size: 14px;&quot;&gt;&lt;br&gt;&lt;/span&gt;&lt;/font&gt;&lt;/div&gt;" style="rounded=0;whiteSpace=wrap;html=1;" vertex="1" parent="1">
          <mxGeometry x="320" y="860" width="200" height="60" as="geometry" />
        </mxCell>
        <mxCell id="B0XCf1iE3_aSpV2wBJrI-36" value="" style="endArrow=classic;html=1;rounded=0;" edge="1" parent="1">
          <mxGeometry width="50" height="50" relative="1" as="geometry">
            <mxPoint x="419.76" y="920" as="sourcePoint" />
            <mxPoint x="419.76" y="940" as="targetPoint" />
          </mxGeometry>
        </mxCell>
        <mxCell id="B0XCf1iE3_aSpV2wBJrI-37" value="&lt;font face=&quot;Times New Roman&quot;&gt;&lt;span style=&quot;font-size: 14px;&quot;&gt;key ==&amp;nbsp;&lt;/span&gt;&lt;/font&gt;&lt;div&gt;&lt;font face=&quot;Times New Roman&quot;&gt;&lt;span style=&quot;font-size: 14px;&quot;&gt;ConsoleKey.&lt;/span&gt;&lt;/font&gt;&lt;div&gt;&lt;font face=&quot;Times New Roman&quot;&gt;&lt;span style=&quot;font-size: 14px;&quot;&gt;DownArrow &amp;amp;&amp;amp; selectedIndex &amp;lt; menuOptions.&lt;/span&gt;&lt;/font&gt;&lt;/div&gt;&lt;div&gt;&lt;font face=&quot;Times New Roman&quot;&gt;&lt;span style=&quot;font-size: 14px;&quot;&gt;Length - 1&lt;/span&gt;&lt;/font&gt;&lt;/div&gt;&lt;/div&gt;" style="rhombus;whiteSpace=wrap;html=1;" vertex="1" parent="1">
          <mxGeometry x="320" y="940" width="200" height="100" as="geometry" />
        </mxCell>
        <mxCell id="B0XCf1iE3_aSpV2wBJrI-38" value="" style="endArrow=classic;html=1;rounded=0;" edge="1" parent="1">
          <mxGeometry width="50" height="50" relative="1" as="geometry">
            <mxPoint x="419.76" y="1040" as="sourcePoint" />
            <mxPoint x="419.76" y="1060" as="targetPoint" />
          </mxGeometry>
        </mxCell>
        <mxCell id="B0XCf1iE3_aSpV2wBJrI-39" value="&lt;div style=&quot;&quot;&gt;&lt;font face=&quot;Times New Roman&quot;&gt;&lt;span style=&quot;font-size: 14px;&quot;&gt;selectedIndex++;&lt;/span&gt;&lt;/font&gt;&lt;br&gt;&lt;/div&gt;" style="rounded=0;whiteSpace=wrap;html=1;" vertex="1" parent="1">
          <mxGeometry x="320" y="1060" width="200" height="20" as="geometry" />
        </mxCell>
        <mxCell id="B0XCf1iE3_aSpV2wBJrI-40" value="" style="endArrow=none;html=1;rounded=0;" edge="1" parent="1">
          <mxGeometry width="50" height="50" relative="1" as="geometry">
            <mxPoint x="520" y="990" as="sourcePoint" />
            <mxPoint x="540" y="990" as="targetPoint" />
          </mxGeometry>
        </mxCell>
        <mxCell id="B0XCf1iE3_aSpV2wBJrI-41" value="" style="endArrow=classic;html=1;rounded=0;" edge="1" parent="1">
          <mxGeometry width="50" height="50" relative="1" as="geometry">
            <mxPoint x="540" y="1100" as="sourcePoint" />
            <mxPoint x="420" y="1101" as="targetPoint" />
          </mxGeometry>
        </mxCell>
        <mxCell id="B0XCf1iE3_aSpV2wBJrI-42" value="&lt;font face=&quot;Times New Roman&quot;&gt;&lt;span style=&quot;font-size: 14px;&quot;&gt;key ==&amp;nbsp;&lt;/span&gt;&lt;/font&gt;&lt;div&gt;&lt;font face=&quot;Times New Roman&quot;&gt;&lt;span style=&quot;font-size: 14px;&quot;&gt;ConsoleKey.UpArrow &amp;amp;&amp;amp; selectedIndex &amp;gt; 0&lt;/span&gt;&lt;/font&gt;&lt;/div&gt;" style="rhombus;whiteSpace=wrap;html=1;" vertex="1" parent="1">
          <mxGeometry x="320" y="1280" width="200" height="80" as="geometry" />
        </mxCell>
        <mxCell id="B0XCf1iE3_aSpV2wBJrI-46" value="" style="endArrow=classic;html=1;rounded=0;" edge="1" parent="1">
          <mxGeometry width="50" height="50" relative="1" as="geometry">
            <mxPoint x="419.65999999999997" y="1080" as="sourcePoint" />
            <mxPoint x="420" y="1120" as="targetPoint" />
          </mxGeometry>
        </mxCell>
        <mxCell id="B0XCf1iE3_aSpV2wBJrI-47" value="" style="endArrow=none;html=1;rounded=0;" edge="1" parent="1">
          <mxGeometry width="50" height="50" relative="1" as="geometry">
            <mxPoint x="540" y="990" as="sourcePoint" />
            <mxPoint x="540" y="1100" as="targetPoint" />
          </mxGeometry>
        </mxCell>
        <mxCell id="B0XCf1iE3_aSpV2wBJrI-48" value="" style="endArrow=none;html=1;rounded=0;" edge="1" parent="1">
          <mxGeometry width="50" height="50" relative="1" as="geometry">
            <mxPoint x="520" y="1320" as="sourcePoint" />
            <mxPoint x="540" y="1320" as="targetPoint" />
          </mxGeometry>
        </mxCell>
        <mxCell id="B0XCf1iE3_aSpV2wBJrI-49" value="" style="endArrow=classic;html=1;rounded=0;" edge="1" parent="1">
          <mxGeometry width="50" height="50" relative="1" as="geometry">
            <mxPoint x="540" y="1420" as="sourcePoint" />
            <mxPoint x="420" y="1421" as="targetPoint" />
          </mxGeometry>
        </mxCell>
        <mxCell id="B0XCf1iE3_aSpV2wBJrI-50" value="" style="endArrow=none;html=1;rounded=0;" edge="1" parent="1">
          <mxGeometry width="50" height="50" relative="1" as="geometry">
            <mxPoint x="540" y="1320" as="sourcePoint" />
            <mxPoint x="540" y="1420" as="targetPoint" />
          </mxGeometry>
        </mxCell>
        <mxCell id="B0XCf1iE3_aSpV2wBJrI-51" value="&lt;font style=&quot;font-size: 14px;&quot; face=&quot;Times New Roman&quot;&gt;1&lt;/font&gt;" style="ellipse;whiteSpace=wrap;html=1;aspect=fixed;" vertex="1" parent="1">
          <mxGeometry x="400" y="1120" width="40" height="40" as="geometry" />
        </mxCell>
        <mxCell id="B0XCf1iE3_aSpV2wBJrI-52" value="&lt;font style=&quot;font-size: 14px;&quot; face=&quot;Times New Roman&quot;&gt;1&lt;/font&gt;" style="ellipse;whiteSpace=wrap;html=1;aspect=fixed;" vertex="1" parent="1">
          <mxGeometry x="400" y="1200" width="40" height="40" as="geometry" />
        </mxCell>
        <mxCell id="B0XCf1iE3_aSpV2wBJrI-53" value="" style="endArrow=classic;html=1;rounded=0;entryX=0.5;entryY=0;entryDx=0;entryDy=0;" edge="1" parent="1" target="B0XCf1iE3_aSpV2wBJrI-42">
          <mxGeometry width="50" height="50" relative="1" as="geometry">
            <mxPoint x="420" y="1240" as="sourcePoint" />
            <mxPoint x="470" y="1190" as="targetPoint" />
          </mxGeometry>
        </mxCell>
        <mxCell id="B0XCf1iE3_aSpV2wBJrI-54" value="" style="endArrow=classic;html=1;rounded=0;" edge="1" parent="1">
          <mxGeometry width="50" height="50" relative="1" as="geometry">
            <mxPoint x="419.76" y="1360" as="sourcePoint" />
            <mxPoint x="419.76" y="1380" as="targetPoint" />
          </mxGeometry>
        </mxCell>
        <mxCell id="B0XCf1iE3_aSpV2wBJrI-55" value="&lt;div style=&quot;&quot;&gt;&lt;font face=&quot;Times New Roman&quot;&gt;&lt;span style=&quot;font-size: 14px;&quot;&gt;selectedIndex--;&lt;/span&gt;&lt;/font&gt;&lt;br&gt;&lt;/div&gt;" style="rounded=0;whiteSpace=wrap;html=1;" vertex="1" parent="1">
          <mxGeometry x="320" y="1380" width="200" height="20" as="geometry" />
        </mxCell>
        <mxCell id="B0XCf1iE3_aSpV2wBJrI-56" value="" style="endArrow=classic;html=1;rounded=0;" edge="1" parent="1">
          <mxGeometry width="50" height="50" relative="1" as="geometry">
            <mxPoint x="420" y="1400" as="sourcePoint" />
            <mxPoint x="420" y="1440" as="targetPoint" />
          </mxGeometry>
        </mxCell>
        <mxCell id="B0XCf1iE3_aSpV2wBJrI-57" value="&lt;font face=&quot;Times New Roman&quot;&gt;&lt;span style=&quot;font-size: 14px;&quot;&gt;key == ConsoleKey.Enter&lt;/span&gt;&lt;/font&gt;" style="rhombus;whiteSpace=wrap;html=1;" vertex="1" parent="1">
          <mxGeometry x="320" y="1440" width="200" height="40" as="geometry" />
        </mxCell>
        <mxCell id="B0XCf1iE3_aSpV2wBJrI-58" value="" style="endArrow=classic;html=1;rounded=0;" edge="1" parent="1">
          <mxGeometry width="50" height="50" relative="1" as="geometry">
            <mxPoint x="420" y="1480" as="sourcePoint" />
            <mxPoint x="420" y="1500" as="targetPoint" />
          </mxGeometry>
        </mxCell>
        <mxCell id="B0XCf1iE3_aSpV2wBJrI-59" value="&lt;div style=&quot;&quot;&gt;&lt;font face=&quot;Times New Roman&quot;&gt;&lt;span style=&quot;font-size: 14px;&quot;&gt;Console.Clear();&lt;/span&gt;&lt;/font&gt;&lt;br&gt;&lt;/div&gt;" style="rounded=0;whiteSpace=wrap;html=1;" vertex="1" parent="1">
          <mxGeometry x="320" y="1500" width="200" height="20" as="geometry" />
        </mxCell>
        <mxCell id="B0XCf1iE3_aSpV2wBJrI-60" value="" style="endArrow=classic;html=1;rounded=0;" edge="1" parent="1">
          <mxGeometry width="50" height="50" relative="1" as="geometry">
            <mxPoint x="419.8" y="1520" as="sourcePoint" />
            <mxPoint x="419.8" y="1540" as="targetPoint" />
          </mxGeometry>
        </mxCell>
        <mxCell id="B0XCf1iE3_aSpV2wBJrI-61" value="&lt;font face=&quot;Times New Roman&quot;&gt;&lt;span style=&quot;font-size: 14px;&quot;&gt;selectedIndex?&lt;/span&gt;&lt;/font&gt;" style="rhombus;whiteSpace=wrap;html=1;" vertex="1" parent="1">
          <mxGeometry x="320" y="1540" width="200" height="40" as="geometry" />
        </mxCell>
        <mxCell id="B0XCf1iE3_aSpV2wBJrI-62" value="" style="endArrow=classic;html=1;rounded=0;" edge="1" parent="1">
          <mxGeometry width="50" height="50" relative="1" as="geometry">
            <mxPoint x="419.8" y="1580" as="sourcePoint" />
            <mxPoint x="419.8" y="1600" as="targetPoint" />
          </mxGeometry>
        </mxCell>
        <mxCell id="B0XCf1iE3_aSpV2wBJrI-63" value="&lt;div style=&quot;&quot;&gt;&lt;font face=&quot;Times New Roman&quot;&gt;&lt;span style=&quot;font-size: 14px;&quot;&gt;ReadAndProcessFile(filePath);&lt;/span&gt;&lt;/font&gt;&lt;br&gt;&lt;/div&gt;" style="rounded=0;whiteSpace=wrap;html=1;" vertex="1" parent="1">
          <mxGeometry x="320" y="1600" width="200" height="20" as="geometry" />
        </mxCell>
        <mxCell id="B0XCf1iE3_aSpV2wBJrI-65" value="&lt;div style=&quot;&quot;&gt;&lt;font face=&quot;Times New Roman&quot;&gt;&lt;span style=&quot;font-size: 14px;&quot;&gt;exit = true;&lt;/span&gt;&lt;/font&gt;&lt;br&gt;&lt;/div&gt;" style="rounded=0;whiteSpace=wrap;html=1;" vertex="1" parent="1">
          <mxGeometry x="530" y="1600" width="200" height="20" as="geometry" />
        </mxCell>
        <mxCell id="B0XCf1iE3_aSpV2wBJrI-66" value="" style="endArrow=none;html=1;rounded=0;" edge="1" parent="1">
          <mxGeometry width="50" height="50" relative="1" as="geometry">
            <mxPoint x="420" y="1590" as="sourcePoint" />
            <mxPoint x="630" y="1590" as="targetPoint" />
          </mxGeometry>
        </mxCell>
        <mxCell id="B0XCf1iE3_aSpV2wBJrI-67" value="" style="endArrow=classic;html=1;rounded=0;" edge="1" parent="1">
          <mxGeometry width="50" height="50" relative="1" as="geometry">
            <mxPoint x="630" y="1590" as="sourcePoint" />
            <mxPoint x="629.8" y="1600" as="targetPoint" />
          </mxGeometry>
        </mxCell>
        <mxCell id="B0XCf1iE3_aSpV2wBJrI-68" value="" style="endArrow=none;html=1;rounded=0;" edge="1" parent="1">
          <mxGeometry width="50" height="50" relative="1" as="geometry">
            <mxPoint x="300" y="1590" as="sourcePoint" />
            <mxPoint x="420" y="1590" as="targetPoint" />
          </mxGeometry>
        </mxCell>
        <mxCell id="B0XCf1iE3_aSpV2wBJrI-69" value="" style="endArrow=none;html=1;rounded=0;" edge="1" parent="1">
          <mxGeometry width="50" height="50" relative="1" as="geometry">
            <mxPoint x="300" y="1640" as="sourcePoint" />
            <mxPoint x="300" y="1590" as="targetPoint" />
          </mxGeometry>
        </mxCell>
        <mxCell id="B0XCf1iE3_aSpV2wBJrI-70" value="" style="endArrow=classic;html=1;rounded=0;" edge="1" parent="1">
          <mxGeometry width="50" height="50" relative="1" as="geometry">
            <mxPoint x="300" y="1640" as="sourcePoint" />
            <mxPoint x="420" y="1640" as="targetPoint" />
          </mxGeometry>
        </mxCell>
        <mxCell id="B0XCf1iE3_aSpV2wBJrI-71" value="" style="endArrow=none;html=1;rounded=0;" edge="1" parent="1">
          <mxGeometry width="50" height="50" relative="1" as="geometry">
            <mxPoint x="630" y="1640" as="sourcePoint" />
            <mxPoint x="630" y="1620" as="targetPoint" />
          </mxGeometry>
        </mxCell>
        <mxCell id="B0XCf1iE3_aSpV2wBJrI-72" value="" style="endArrow=classic;html=1;rounded=0;" edge="1" parent="1">
          <mxGeometry width="50" height="50" relative="1" as="geometry">
            <mxPoint x="630" y="1640" as="sourcePoint" />
            <mxPoint x="420" y="1640" as="targetPoint" />
          </mxGeometry>
        </mxCell>
        <mxCell id="B0XCf1iE3_aSpV2wBJrI-73" value="&lt;font face=&quot;Times New Roman&quot;&gt;default&lt;/font&gt;" style="text;html=1;align=center;verticalAlign=middle;resizable=0;points=[];autosize=1;strokeColor=none;fillColor=none;" vertex="1" parent="1">
          <mxGeometry x="270" y="1568" width="60" height="30" as="geometry" />
        </mxCell>
        <mxCell id="B0XCf1iE3_aSpV2wBJrI-74" value="&lt;font face=&quot;Times New Roman&quot;&gt;0&lt;/font&gt;" style="text;html=1;align=center;verticalAlign=middle;resizable=0;points=[];autosize=1;strokeColor=none;fillColor=none;" vertex="1" parent="1">
          <mxGeometry x="435" y="1570" width="30" height="30" as="geometry" />
        </mxCell>
        <mxCell id="B0XCf1iE3_aSpV2wBJrI-75" value="&lt;font face=&quot;Times New Roman&quot;&gt;1&lt;/font&gt;" style="text;html=1;align=center;verticalAlign=middle;resizable=0;points=[];autosize=1;strokeColor=none;fillColor=none;" vertex="1" parent="1">
          <mxGeometry x="610" y="1568" width="30" height="30" as="geometry" />
        </mxCell>
        <mxCell id="B0XCf1iE3_aSpV2wBJrI-76" value="" style="endArrow=none;html=1;rounded=0;" edge="1" parent="1">
          <mxGeometry width="50" height="50" relative="1" as="geometry">
            <mxPoint x="520" y="1460" as="sourcePoint" />
            <mxPoint x="740" y="1460" as="targetPoint" />
          </mxGeometry>
        </mxCell>
        <mxCell id="B0XCf1iE3_aSpV2wBJrI-77" value="" style="endArrow=none;html=1;rounded=0;" edge="1" parent="1">
          <mxGeometry width="50" height="50" relative="1" as="geometry">
            <mxPoint x="740" y="1460" as="sourcePoint" />
            <mxPoint x="740" y="1660" as="targetPoint" />
          </mxGeometry>
        </mxCell>
        <mxCell id="B0XCf1iE3_aSpV2wBJrI-78" value="" style="endArrow=classic;html=1;rounded=0;" edge="1" parent="1">
          <mxGeometry width="50" height="50" relative="1" as="geometry">
            <mxPoint x="740" y="1660" as="sourcePoint" />
            <mxPoint x="420" y="1660" as="targetPoint" />
          </mxGeometry>
        </mxCell>
        <mxCell id="B0XCf1iE3_aSpV2wBJrI-79" value="" style="endArrow=none;html=1;rounded=0;" edge="1" parent="1">
          <mxGeometry width="50" height="50" relative="1" as="geometry">
            <mxPoint x="420" y="1680" as="sourcePoint" />
            <mxPoint x="420" y="1620" as="targetPoint" />
          </mxGeometry>
        </mxCell>
        <mxCell id="B0XCf1iE3_aSpV2wBJrI-80" value="" style="endArrow=none;html=1;rounded=0;" edge="1" parent="1">
          <mxGeometry width="50" height="50" relative="1" as="geometry">
            <mxPoint x="280" y="1680" as="sourcePoint" />
            <mxPoint x="420" y="1680" as="targetPoint" />
          </mxGeometry>
        </mxCell>
        <mxCell id="B0XCf1iE3_aSpV2wBJrI-81" value="" style="endArrow=classic;html=1;rounded=0;" edge="1" parent="1">
          <mxGeometry width="50" height="50" relative="1" as="geometry">
            <mxPoint x="280" y="1680" as="sourcePoint" />
            <mxPoint x="280" y="1240" as="targetPoint" />
          </mxGeometry>
        </mxCell>
        <mxCell id="B0XCf1iE3_aSpV2wBJrI-82" value="&lt;font style=&quot;font-size: 14px;&quot; face=&quot;Times New Roman&quot;&gt;2&lt;/font&gt;" style="ellipse;whiteSpace=wrap;html=1;aspect=fixed;" vertex="1" parent="1">
          <mxGeometry x="260" y="1200" width="40" height="40" as="geometry" />
        </mxCell>
        <mxCell id="B0XCf1iE3_aSpV2wBJrI-83" value="&lt;font style=&quot;font-size: 14px;&quot; face=&quot;Times New Roman&quot;&gt;2&lt;/font&gt;" style="ellipse;whiteSpace=wrap;html=1;aspect=fixed;" vertex="1" parent="1">
          <mxGeometry x="260" y="1120" width="40" height="40" as="geometry" />
        </mxCell>
        <mxCell id="B0XCf1iE3_aSpV2wBJrI-84" value="" style="endArrow=none;html=1;rounded=0;" edge="1" parent="1">
          <mxGeometry width="50" height="50" relative="1" as="geometry">
            <mxPoint x="280" y="1120" as="sourcePoint" />
            <mxPoint x="280" y="260" as="targetPoint" />
          </mxGeometry>
        </mxCell>
        <mxCell id="B0XCf1iE3_aSpV2wBJrI-85" value="" style="endArrow=classic;html=1;rounded=0;entryX=0;entryY=0.5;entryDx=0;entryDy=0;" edge="1" parent="1" target="B0XCf1iE3_aSpV2wBJrI-7">
          <mxGeometry width="50" height="50" relative="1" as="geometry">
            <mxPoint x="280" y="260" as="sourcePoint" />
            <mxPoint x="330" y="210" as="targetPoint" />
          </mxGeometry>
        </mxCell>
        <mxCell id="B0XCf1iE3_aSpV2wBJrI-86" value="&lt;font style=&quot;font-size: 14px;&quot; face=&quot;Times New Roman&quot;&gt;3&lt;/font&gt;" style="ellipse;whiteSpace=wrap;html=1;aspect=fixed;" vertex="1" parent="1">
          <mxGeometry x="740" y="1120" width="40" height="40" as="geometry" />
        </mxCell>
        <mxCell id="B0XCf1iE3_aSpV2wBJrI-87" value="&lt;font style=&quot;font-size: 14px;&quot; face=&quot;Times New Roman&quot;&gt;3&lt;/font&gt;" style="ellipse;whiteSpace=wrap;html=1;aspect=fixed;" vertex="1" parent="1">
          <mxGeometry x="740" y="1200" width="40" height="40" as="geometry" />
        </mxCell>
        <mxCell id="B0XCf1iE3_aSpV2wBJrI-88" value="" style="endArrow=none;html=1;rounded=0;" edge="1" parent="1">
          <mxGeometry width="50" height="50" relative="1" as="geometry">
            <mxPoint x="520" y="260" as="sourcePoint" />
            <mxPoint x="760" y="260" as="targetPoint" />
          </mxGeometry>
        </mxCell>
        <mxCell id="B0XCf1iE3_aSpV2wBJrI-89" value="" style="endArrow=classic;html=1;rounded=0;" edge="1" parent="1" target="B0XCf1iE3_aSpV2wBJrI-86">
          <mxGeometry width="50" height="50" relative="1" as="geometry">
            <mxPoint x="760" y="260" as="sourcePoint" />
            <mxPoint x="630" y="210" as="targetPoint" />
          </mxGeometry>
        </mxCell>
        <mxCell id="B0XCf1iE3_aSpV2wBJrI-90" value="" style="endArrow=none;html=1;rounded=0;" edge="1" parent="1">
          <mxGeometry width="50" height="50" relative="1" as="geometry">
            <mxPoint x="760" y="1240" as="sourcePoint" />
            <mxPoint x="760" y="1700" as="targetPoint" />
          </mxGeometry>
        </mxCell>
        <mxCell id="B0XCf1iE3_aSpV2wBJrI-91" value="" style="endArrow=none;html=1;rounded=0;" edge="1" parent="1">
          <mxGeometry width="50" height="50" relative="1" as="geometry">
            <mxPoint x="420" y="1700" as="sourcePoint" />
            <mxPoint x="760" y="1700" as="targetPoint" />
          </mxGeometry>
        </mxCell>
        <mxCell id="B0XCf1iE3_aSpV2wBJrI-93" value="" style="endArrow=classic;html=1;rounded=0;" edge="1" parent="1">
          <mxGeometry width="50" height="50" relative="1" as="geometry">
            <mxPoint x="420" y="1700" as="sourcePoint" />
            <mxPoint x="420" y="1720" as="targetPoint" />
          </mxGeometry>
        </mxCell>
        <mxCell id="B0XCf1iE3_aSpV2wBJrI-94" value="&lt;font face=&quot;Times New Roman&quot;&gt;&lt;span style=&quot;font-size: 14px;&quot;&gt;Конец&lt;/span&gt;&lt;/font&gt;" style="ellipse;whiteSpace=wrap;html=1;" vertex="1" parent="1">
          <mxGeometry x="320" y="1720" width="200" height="40" as="geometry" />
        </mxCell>
        <mxCell id="B0XCf1iE3_aSpV2wBJrI-95" value="&lt;font style=&quot;font-size: 14px;&quot; face=&quot;Times New Roman&quot;&gt;True&lt;/font&gt;" style="text;html=1;align=center;verticalAlign=middle;resizable=0;points=[];autosize=1;strokeColor=none;fillColor=none;" vertex="1" parent="1">
          <mxGeometry x="415" y="270" width="50" height="30" as="geometry" />
        </mxCell>
        <mxCell id="B0XCf1iE3_aSpV2wBJrI-96" value="&lt;font style=&quot;font-size: 14px;&quot; face=&quot;Times New Roman&quot;&gt;False&lt;/font&gt;" style="text;html=1;align=center;verticalAlign=middle;resizable=0;points=[];autosize=1;strokeColor=none;fillColor=none;" vertex="1" parent="1">
          <mxGeometry x="510" y="230" width="50" height="30" as="geometry" />
        </mxCell>
        <mxCell id="B0XCf1iE3_aSpV2wBJrI-97" value="&lt;font style=&quot;font-size: 14px;&quot; face=&quot;Times New Roman&quot;&gt;True&lt;/font&gt;" style="text;html=1;align=center;verticalAlign=middle;resizable=0;points=[];autosize=1;strokeColor=none;fillColor=none;" vertex="1" parent="1">
          <mxGeometry x="414" y="410" width="50" height="30" as="geometry" />
        </mxCell>
        <mxCell id="B0XCf1iE3_aSpV2wBJrI-98" value="&lt;font style=&quot;font-size: 14px;&quot; face=&quot;Times New Roman&quot;&gt;False&lt;/font&gt;" style="text;html=1;align=center;verticalAlign=middle;resizable=0;points=[];autosize=1;strokeColor=none;fillColor=none;" vertex="1" parent="1">
          <mxGeometry x="509" y="370" width="50" height="30" as="geometry" />
        </mxCell>
        <mxCell id="B0XCf1iE3_aSpV2wBJrI-99" value="&lt;font style=&quot;font-size: 14px;&quot; face=&quot;Times New Roman&quot;&gt;True&lt;/font&gt;" style="text;html=1;align=center;verticalAlign=middle;resizable=0;points=[];autosize=1;strokeColor=none;fillColor=none;" vertex="1" parent="1">
          <mxGeometry x="415" y="1030" width="50" height="30" as="geometry" />
        </mxCell>
        <mxCell id="B0XCf1iE3_aSpV2wBJrI-100" value="&lt;font style=&quot;font-size: 14px;&quot; face=&quot;Times New Roman&quot;&gt;False&lt;/font&gt;" style="text;html=1;align=center;verticalAlign=middle;resizable=0;points=[];autosize=1;strokeColor=none;fillColor=none;" vertex="1" parent="1">
          <mxGeometry x="510" y="960" width="50" height="30" as="geometry" />
        </mxCell>
        <mxCell id="B0XCf1iE3_aSpV2wBJrI-101" value="&lt;font style=&quot;font-size: 14px;&quot; face=&quot;Times New Roman&quot;&gt;True&lt;/font&gt;" style="text;html=1;align=center;verticalAlign=middle;resizable=0;points=[];autosize=1;strokeColor=none;fillColor=none;" vertex="1" parent="1">
          <mxGeometry x="415" y="1350" width="50" height="30" as="geometry" />
        </mxCell>
        <mxCell id="B0XCf1iE3_aSpV2wBJrI-102" value="&lt;font style=&quot;font-size: 14px;&quot; face=&quot;Times New Roman&quot;&gt;False&lt;/font&gt;" style="text;html=1;align=center;verticalAlign=middle;resizable=0;points=[];autosize=1;strokeColor=none;fillColor=none;" vertex="1" parent="1">
          <mxGeometry x="509" y="1290" width="50" height="30" as="geometry" />
        </mxCell>
        <mxCell id="B0XCf1iE3_aSpV2wBJrI-103" value="&lt;font style=&quot;font-size: 14px;&quot; face=&quot;Times New Roman&quot;&gt;True&lt;/font&gt;" style="text;html=1;align=center;verticalAlign=middle;resizable=0;points=[];autosize=1;strokeColor=none;fillColor=none;" vertex="1" parent="1">
          <mxGeometry x="416" y="1475" width="50" height="30" as="geometry" />
        </mxCell>
        <mxCell id="B0XCf1iE3_aSpV2wBJrI-104" value="&lt;font style=&quot;font-size: 14px;&quot; face=&quot;Times New Roman&quot;&gt;False&lt;/font&gt;" style="text;html=1;align=center;verticalAlign=middle;resizable=0;points=[];autosize=1;strokeColor=none;fillColor=none;" vertex="1" parent="1">
          <mxGeometry x="509" y="1430" width="50" height="30" as="geometry" />
        </mxCell>
        <mxCell id="B0XCf1iE3_aSpV2wBJrI-107" value="&lt;font face=&quot;Times New Roman&quot;&gt;&lt;span style=&quot;font-size: 14px;&quot;&gt;Начало&lt;/span&gt;&lt;/font&gt;" style="ellipse;whiteSpace=wrap;html=1;" vertex="1" parent="1">
          <mxGeometry x="320" y="1800" width="200" height="40" as="geometry" />
        </mxCell>
        <mxCell id="B0XCf1iE3_aSpV2wBJrI-108" value="" style="endArrow=classic;html=1;rounded=0;" edge="1" parent="1">
          <mxGeometry width="50" height="50" relative="1" as="geometry">
            <mxPoint x="419.7" y="1840" as="sourcePoint" />
            <mxPoint x="419.7" y="1880" as="targetPoint" />
          </mxGeometry>
        </mxCell>
        <mxCell id="B0XCf1iE3_aSpV2wBJrI-109" value="&lt;font face=&quot;Times New Roman&quot;&gt;&lt;span style=&quot;font-size: 14px;&quot;&gt;!File.Exists(filePath)&lt;/span&gt;&lt;/font&gt;" style="rhombus;whiteSpace=wrap;html=1;" vertex="1" parent="1">
          <mxGeometry x="320" y="1880" width="200" height="40" as="geometry" />
        </mxCell>
        <mxCell id="B0XCf1iE3_aSpV2wBJrI-110" value="" style="endArrow=classic;html=1;rounded=0;" edge="1" parent="1">
          <mxGeometry width="50" height="50" relative="1" as="geometry">
            <mxPoint x="419.7" y="1920" as="sourcePoint" />
            <mxPoint x="419.7" y="1960" as="targetPoint" />
          </mxGeometry>
        </mxCell>
        <mxCell id="B0XCf1iE3_aSpV2wBJrI-111" value="&lt;font style=&quot;font-size: 14px;&quot; face=&quot;Times New Roman&quot;&gt;&quot;Файл reals.txt не найден.&quot;&lt;/font&gt;" style="shape=document;whiteSpace=wrap;html=1;boundedLbl=1;" vertex="1" parent="1">
          <mxGeometry x="600" y="2200" width="200" height="40" as="geometry" />
        </mxCell>
        <mxCell id="B0XCf1iE3_aSpV2wBJrI-113" value="" style="endArrow=none;html=1;rounded=0;" edge="1" parent="1">
          <mxGeometry width="50" height="50" relative="1" as="geometry">
            <mxPoint x="520" y="1900" as="sourcePoint" />
            <mxPoint x="700" y="1900" as="targetPoint" />
          </mxGeometry>
        </mxCell>
        <mxCell id="B0XCf1iE3_aSpV2wBJrI-116" value="&lt;font style=&quot;font-size: 14px;&quot; face=&quot;Times New Roman&quot;&gt;True&lt;/font&gt;" style="text;html=1;align=center;verticalAlign=middle;resizable=0;points=[];autosize=1;strokeColor=none;fillColor=none;" vertex="1" parent="1">
          <mxGeometry x="417" y="1915" width="50" height="30" as="geometry" />
        </mxCell>
        <mxCell id="B0XCf1iE3_aSpV2wBJrI-117" value="&lt;font style=&quot;font-size: 14px;&quot; face=&quot;Times New Roman&quot;&gt;False&lt;/font&gt;" style="text;html=1;align=center;verticalAlign=middle;resizable=0;points=[];autosize=1;strokeColor=none;fillColor=none;" vertex="1" parent="1">
          <mxGeometry x="510" y="1870" width="50" height="30" as="geometry" />
        </mxCell>
        <mxCell id="B0XCf1iE3_aSpV2wBJrI-118" value="&lt;div style=&quot;font-size: 14px;&quot;&gt;&lt;div&gt;&lt;font style=&quot;font-size: 14px;&quot; face=&quot;Times New Roman&quot;&gt;&amp;nbsp;string content = File.ReadAllText(filePath);&lt;/font&gt;&lt;/div&gt;&lt;div&gt;&lt;font style=&quot;font-size: 14px;&quot; face=&quot;ua2JQUzR2YYrD1djVIY6&quot;&gt;&amp;nbsp;List&amp;lt;double&amp;gt; numbers = new List&amp;lt;double&amp;gt;();&lt;/font&gt;&lt;/div&gt;&lt;div&gt;&lt;font style=&quot;font-size: 14px;&quot; face=&quot;ua2JQUzR2YYrD1djVIY6&quot;&gt;&amp;nbsp;int i = 0;&lt;/font&gt;&lt;/div&gt;&lt;/div&gt;" style="rounded=0;whiteSpace=wrap;html=1;" vertex="1" parent="1">
          <mxGeometry x="320" y="1960" width="200" height="90" as="geometry" />
        </mxCell>
        <mxCell id="B0XCf1iE3_aSpV2wBJrI-119" value="" style="endArrow=classic;html=1;rounded=0;" edge="1" parent="1">
          <mxGeometry width="50" height="50" relative="1" as="geometry">
            <mxPoint x="420" y="2050" as="sourcePoint" />
            <mxPoint x="420" y="2080" as="targetPoint" />
          </mxGeometry>
        </mxCell>
        <mxCell id="B0XCf1iE3_aSpV2wBJrI-120" value="&lt;font face=&quot;Times New Roman&quot;&gt;&lt;span style=&quot;font-size: 14px;&quot;&gt;i &amp;lt;= content.Length - 8&lt;/span&gt;&lt;/font&gt;" style="rhombus;whiteSpace=wrap;html=1;" vertex="1" parent="1">
          <mxGeometry x="320" y="2080" width="200" height="40" as="geometry" />
        </mxCell>
        <mxCell id="B0XCf1iE3_aSpV2wBJrI-121" value="" style="endArrow=classic;html=1;rounded=0;" edge="1" parent="1">
          <mxGeometry width="50" height="50" relative="1" as="geometry">
            <mxPoint x="419.75" y="2120" as="sourcePoint" />
            <mxPoint x="420" y="2140" as="targetPoint" />
          </mxGeometry>
        </mxCell>
        <mxCell id="B0XCf1iE3_aSpV2wBJrI-122" value="&lt;div style=&quot;text-align: left;&quot;&gt;&lt;font face=&quot;Times New Roman&quot;&gt;&lt;span style=&quot;font-size: 14px;&quot;&gt;string part =content.Substring(i,8);&lt;/span&gt;&lt;/font&gt;&lt;br&gt;&lt;/div&gt;" style="rounded=0;whiteSpace=wrap;html=1;" vertex="1" parent="1">
          <mxGeometry x="320" y="2140" width="200" height="20" as="geometry" />
        </mxCell>
        <mxCell id="B0XCf1iE3_aSpV2wBJrI-123" value="" style="endArrow=classic;html=1;rounded=0;" edge="1" parent="1">
          <mxGeometry width="50" height="50" relative="1" as="geometry">
            <mxPoint x="419.75" y="2160" as="sourcePoint" />
            <mxPoint x="420" y="2180" as="targetPoint" />
          </mxGeometry>
        </mxCell>
        <mxCell id="B0XCf1iE3_aSpV2wBJrI-124" value="&lt;font face=&quot;Times New Roman&quot;&gt;&lt;span style=&quot;font-size: 14px;&quot;&gt;Проверка&lt;/span&gt;&lt;/font&gt;&lt;div&gt;&lt;font face=&quot;Times New Roman&quot;&gt;&lt;span style=&quot;font-size: 14px;&quot;&gt;&amp;nbsp;на соотвествие&amp;nbsp;&lt;br&gt;числу&lt;/span&gt;&lt;/font&gt;&lt;/div&gt;" style="rhombus;whiteSpace=wrap;html=1;" vertex="1" parent="1">
          <mxGeometry x="320" y="2180" width="200" height="60" as="geometry" />
        </mxCell>
        <mxCell id="B0XCf1iE3_aSpV2wBJrI-125" value="" style="endArrow=classic;html=1;rounded=0;" edge="1" parent="1">
          <mxGeometry width="50" height="50" relative="1" as="geometry">
            <mxPoint x="419.75" y="2240" as="sourcePoint" />
            <mxPoint x="420" y="2260" as="targetPoint" />
          </mxGeometry>
        </mxCell>
        <mxCell id="B0XCf1iE3_aSpV2wBJrI-126" value="&lt;font style=&quot;font-size: 12px;&quot; face=&quot;Times New Roman&quot;&gt;double.TryParse(part, NumberStyles.Float, CultureInfo.&lt;/font&gt;&lt;div&gt;&lt;font style=&quot;font-size: 12px;&quot; face=&quot;Times New Roman&quot;&gt;InvariantCulture,&amp;nbsp;&lt;/font&gt;&lt;/div&gt;&lt;div&gt;&lt;font style=&quot;font-size: 12px;&quot; face=&quot;Times New Roman&quot;&gt;out double number)&lt;/font&gt;&lt;/div&gt;" style="rhombus;whiteSpace=wrap;html=1;" vertex="1" parent="1">
          <mxGeometry x="320" y="2260" width="200" height="100" as="geometry" />
        </mxCell>
        <mxCell id="B0XCf1iE3_aSpV2wBJrI-127" value="" style="endArrow=classic;html=1;rounded=0;" edge="1" parent="1">
          <mxGeometry width="50" height="50" relative="1" as="geometry">
            <mxPoint x="419.75" y="2360" as="sourcePoint" />
            <mxPoint x="420" y="2380" as="targetPoint" />
          </mxGeometry>
        </mxCell>
        <mxCell id="B0XCf1iE3_aSpV2wBJrI-128" value="&lt;div style=&quot;font-size: 14px;&quot;&gt;&lt;div style=&quot;&quot;&gt;&lt;font face=&quot;Times New Roman&quot;&gt;numbers.Add(number);&lt;/font&gt;&lt;/div&gt;&lt;div style=&quot;&quot;&gt;&lt;font face=&quot;Mp_UjTIaIeqlixD5O9mK&quot;&gt;i += 8;&lt;/font&gt;&lt;/div&gt;&lt;div style=&quot;&quot;&gt;&lt;font face=&quot;Mp_UjTIaIeqlixD5O9mK&quot;&gt;continue;&lt;/font&gt;&lt;/div&gt;&lt;/div&gt;" style="rounded=0;whiteSpace=wrap;html=1;align=center;" vertex="1" parent="1">
          <mxGeometry x="320" y="2380" width="200" height="60" as="geometry" />
        </mxCell>
        <mxCell id="B0XCf1iE3_aSpV2wBJrI-129" value="" style="endArrow=classic;html=1;rounded=0;" edge="1" parent="1">
          <mxGeometry width="50" height="50" relative="1" as="geometry">
            <mxPoint x="419.75" y="2440" as="sourcePoint" />
            <mxPoint x="420" y="2500" as="targetPoint" />
          </mxGeometry>
        </mxCell>
        <mxCell id="B0XCf1iE3_aSpV2wBJrI-130" value="" style="endArrow=none;html=1;rounded=0;" edge="1" parent="1">
          <mxGeometry width="50" height="50" relative="1" as="geometry">
            <mxPoint x="520" y="2310" as="sourcePoint" />
            <mxPoint x="540" y="2310" as="targetPoint" />
          </mxGeometry>
        </mxCell>
        <mxCell id="B0XCf1iE3_aSpV2wBJrI-131" value="" style="endArrow=none;html=1;rounded=0;" edge="1" parent="1">
          <mxGeometry width="50" height="50" relative="1" as="geometry">
            <mxPoint x="540" y="2310" as="sourcePoint" />
            <mxPoint x="540" y="2460" as="targetPoint" />
          </mxGeometry>
        </mxCell>
        <mxCell id="B0XCf1iE3_aSpV2wBJrI-132" value="" style="endArrow=classic;html=1;rounded=0;" edge="1" parent="1">
          <mxGeometry width="50" height="50" relative="1" as="geometry">
            <mxPoint x="540" y="2460" as="sourcePoint" />
            <mxPoint x="420" y="2460" as="targetPoint" />
          </mxGeometry>
        </mxCell>
        <mxCell id="B0XCf1iE3_aSpV2wBJrI-133" value="" style="endArrow=none;html=1;rounded=0;" edge="1" parent="1">
          <mxGeometry width="50" height="50" relative="1" as="geometry">
            <mxPoint x="520" y="2210" as="sourcePoint" />
            <mxPoint x="560" y="2210" as="targetPoint" />
          </mxGeometry>
        </mxCell>
        <mxCell id="B0XCf1iE3_aSpV2wBJrI-134" value="" style="endArrow=none;html=1;rounded=0;" edge="1" parent="1">
          <mxGeometry width="50" height="50" relative="1" as="geometry">
            <mxPoint x="560" y="2210" as="sourcePoint" />
            <mxPoint x="560" y="2480" as="targetPoint" />
          </mxGeometry>
        </mxCell>
        <mxCell id="B0XCf1iE3_aSpV2wBJrI-135" value="" style="endArrow=classic;html=1;rounded=0;" edge="1" parent="1">
          <mxGeometry width="50" height="50" relative="1" as="geometry">
            <mxPoint x="560" y="2480" as="sourcePoint" />
            <mxPoint x="420" y="2480" as="targetPoint" />
          </mxGeometry>
        </mxCell>
        <mxCell id="B0XCf1iE3_aSpV2wBJrI-136" value="&lt;div style=&quot;&quot;&gt;&lt;div style=&quot;&quot;&gt;&lt;font face=&quot;Times New Roman&quot;&gt;&lt;span style=&quot;font-size: 14px;&quot;&gt;i++;&lt;/span&gt;&lt;/font&gt;&lt;br&gt;&lt;/div&gt;&lt;/div&gt;" style="rounded=0;whiteSpace=wrap;html=1;align=center;" vertex="1" parent="1">
          <mxGeometry x="320" y="2500" width="200" height="20" as="geometry" />
        </mxCell>
        <mxCell id="B0XCf1iE3_aSpV2wBJrI-137" value="" style="endArrow=none;html=1;rounded=0;" edge="1" parent="1">
          <mxGeometry width="50" height="50" relative="1" as="geometry">
            <mxPoint x="419.94" y="2530" as="sourcePoint" />
            <mxPoint x="419.94" y="2520" as="targetPoint" />
          </mxGeometry>
        </mxCell>
        <mxCell id="B0XCf1iE3_aSpV2wBJrI-138" value="" style="endArrow=none;html=1;rounded=0;" edge="1" parent="1">
          <mxGeometry width="50" height="50" relative="1" as="geometry">
            <mxPoint x="310" y="2530" as="sourcePoint" />
            <mxPoint x="420" y="2530" as="targetPoint" />
          </mxGeometry>
        </mxCell>
        <mxCell id="B0XCf1iE3_aSpV2wBJrI-139" value="" style="endArrow=none;html=1;rounded=0;" edge="1" parent="1">
          <mxGeometry width="50" height="50" relative="1" as="geometry">
            <mxPoint x="310" y="2530" as="sourcePoint" />
            <mxPoint x="310" y="2100" as="targetPoint" />
          </mxGeometry>
        </mxCell>
        <mxCell id="B0XCf1iE3_aSpV2wBJrI-140" value="" style="endArrow=classic;html=1;rounded=0;entryX=0;entryY=0.5;entryDx=0;entryDy=0;" edge="1" parent="1" target="B0XCf1iE3_aSpV2wBJrI-120">
          <mxGeometry width="50" height="50" relative="1" as="geometry">
            <mxPoint x="310" y="2100" as="sourcePoint" />
            <mxPoint x="360" y="2050" as="targetPoint" />
          </mxGeometry>
        </mxCell>
        <mxCell id="B0XCf1iE3_aSpV2wBJrI-141" value="" style="endArrow=none;html=1;rounded=0;" edge="1" parent="1">
          <mxGeometry width="50" height="50" relative="1" as="geometry">
            <mxPoint x="520" y="2100" as="sourcePoint" />
            <mxPoint x="580" y="2100" as="targetPoint" />
          </mxGeometry>
        </mxCell>
        <mxCell id="B0XCf1iE3_aSpV2wBJrI-142" value="" style="endArrow=none;html=1;rounded=0;" edge="1" parent="1">
          <mxGeometry width="50" height="50" relative="1" as="geometry">
            <mxPoint x="580" y="2100" as="sourcePoint" />
            <mxPoint x="580" y="2540" as="targetPoint" />
          </mxGeometry>
        </mxCell>
        <mxCell id="B0XCf1iE3_aSpV2wBJrI-143" value="" style="endArrow=none;html=1;rounded=0;" edge="1" parent="1">
          <mxGeometry width="50" height="50" relative="1" as="geometry">
            <mxPoint x="420" y="2540" as="sourcePoint" />
            <mxPoint x="580" y="2540" as="targetPoint" />
          </mxGeometry>
        </mxCell>
        <mxCell id="B0XCf1iE3_aSpV2wBJrI-144" value="" style="endArrow=classic;html=1;rounded=0;" edge="1" parent="1">
          <mxGeometry width="50" height="50" relative="1" as="geometry">
            <mxPoint x="420" y="2540" as="sourcePoint" />
            <mxPoint x="420" y="2560" as="targetPoint" />
          </mxGeometry>
        </mxCell>
        <mxCell id="B0XCf1iE3_aSpV2wBJrI-145" value="&lt;font face=&quot;Times New Roman&quot;&gt;&lt;span style=&quot;font-size: 14px;&quot;&gt;&quot;Найденные числа:&quot;&lt;/span&gt;&lt;/font&gt;" style="shape=document;whiteSpace=wrap;html=1;boundedLbl=1;" vertex="1" parent="1">
          <mxGeometry x="320" y="2560" width="200" height="40" as="geometry" />
        </mxCell>
        <mxCell id="B0XCf1iE3_aSpV2wBJrI-146" value="" style="endArrow=classic;html=1;rounded=0;exitX=0.501;exitY=0.846;exitDx=0;exitDy=0;exitPerimeter=0;" edge="1" parent="1" source="B0XCf1iE3_aSpV2wBJrI-145">
          <mxGeometry width="50" height="50" relative="1" as="geometry">
            <mxPoint x="370" y="2670" as="sourcePoint" />
            <mxPoint x="420" y="2620" as="targetPoint" />
          </mxGeometry>
        </mxCell>
        <mxCell id="B0XCf1iE3_aSpV2wBJrI-147" value="&lt;div style=&quot;&quot;&gt;&lt;div style=&quot;&quot;&gt;&lt;font face=&quot;Times New Roman&quot;&gt;&lt;span style=&quot;font-size: 14px;&quot;&gt;double sum = 0;&lt;/span&gt;&lt;/font&gt;&lt;br&gt;&lt;/div&gt;&lt;/div&gt;" style="rounded=0;whiteSpace=wrap;html=1;align=center;" vertex="1" parent="1">
          <mxGeometry x="320" y="2620" width="200" height="20" as="geometry" />
        </mxCell>
        <mxCell id="B0XCf1iE3_aSpV2wBJrI-148" value="" style="endArrow=classic;html=1;rounded=0;exitX=0.501;exitY=0.846;exitDx=0;exitDy=0;exitPerimeter=0;" edge="1" parent="1">
          <mxGeometry width="50" height="50" relative="1" as="geometry">
            <mxPoint x="419.8" y="2640" as="sourcePoint" />
            <mxPoint x="420" y="2660" as="targetPoint" />
          </mxGeometry>
        </mxCell>
        <mxCell id="B0XCf1iE3_aSpV2wBJrI-149" value="&lt;font style=&quot;font-size: 14px;&quot; face=&quot;Times New Roman&quot;&gt;var number in numbers&lt;/font&gt;" style="shape=hexagon;perimeter=hexagonPerimeter2;whiteSpace=wrap;html=1;fixedSize=1;" vertex="1" parent="1">
          <mxGeometry x="320" y="2660" width="200" height="20" as="geometry" />
        </mxCell>
        <mxCell id="B0XCf1iE3_aSpV2wBJrI-150" value="" style="endArrow=classic;html=1;rounded=0;exitX=0.501;exitY=0.846;exitDx=0;exitDy=0;exitPerimeter=0;" edge="1" parent="1">
          <mxGeometry width="50" height="50" relative="1" as="geometry">
            <mxPoint x="419.8" y="2680" as="sourcePoint" />
            <mxPoint x="420" y="2700" as="targetPoint" />
          </mxGeometry>
        </mxCell>
        <mxCell id="B0XCf1iE3_aSpV2wBJrI-151" value="&lt;font face=&quot;Times New Roman&quot;&gt;&lt;span style=&quot;font-size: 14px;&quot;&gt;number&lt;/span&gt;&lt;/font&gt;" style="shape=document;whiteSpace=wrap;html=1;boundedLbl=1;" vertex="1" parent="1">
          <mxGeometry x="320" y="2700" width="200" height="20" as="geometry" />
        </mxCell>
        <mxCell id="B0XCf1iE3_aSpV2wBJrI-152" value="" style="endArrow=classic;html=1;rounded=0;exitX=0.499;exitY=0.85;exitDx=0;exitDy=0;exitPerimeter=0;" edge="1" parent="1" source="B0XCf1iE3_aSpV2wBJrI-151">
          <mxGeometry width="50" height="50" relative="1" as="geometry">
            <mxPoint x="419.8" y="2720" as="sourcePoint" />
            <mxPoint x="419.8" y="2740" as="targetPoint" />
          </mxGeometry>
        </mxCell>
        <mxCell id="B0XCf1iE3_aSpV2wBJrI-153" value="&lt;div style=&quot;&quot;&gt;&lt;div style=&quot;&quot;&gt;&lt;font face=&quot;Times New Roman&quot;&gt;&lt;span style=&quot;font-size: 14px;&quot;&gt;&amp;nbsp;sum += number;&lt;/span&gt;&lt;/font&gt;&lt;br&gt;&lt;/div&gt;&lt;/div&gt;" style="rounded=0;whiteSpace=wrap;html=1;align=center;" vertex="1" parent="1">
          <mxGeometry x="320" y="2740" width="200" height="20" as="geometry" />
        </mxCell>
        <mxCell id="B0XCf1iE3_aSpV2wBJrI-154" value="" style="endArrow=none;html=1;rounded=0;" edge="1" parent="1">
          <mxGeometry width="50" height="50" relative="1" as="geometry">
            <mxPoint x="420" y="2770" as="sourcePoint" />
            <mxPoint x="420" y="2760" as="targetPoint" />
          </mxGeometry>
        </mxCell>
        <mxCell id="B0XCf1iE3_aSpV2wBJrI-155" value="" style="endArrow=none;html=1;rounded=0;" edge="1" parent="1">
          <mxGeometry width="50" height="50" relative="1" as="geometry">
            <mxPoint x="300" y="2770" as="sourcePoint" />
            <mxPoint x="420" y="2770" as="targetPoint" />
          </mxGeometry>
        </mxCell>
        <mxCell id="B0XCf1iE3_aSpV2wBJrI-156" value="" style="endArrow=none;html=1;rounded=0;" edge="1" parent="1">
          <mxGeometry width="50" height="50" relative="1" as="geometry">
            <mxPoint x="300" y="2770" as="sourcePoint" />
            <mxPoint x="300" y="2670" as="targetPoint" />
          </mxGeometry>
        </mxCell>
        <mxCell id="B0XCf1iE3_aSpV2wBJrI-157" value="" style="endArrow=classic;html=1;rounded=0;entryX=0;entryY=0.5;entryDx=0;entryDy=0;" edge="1" parent="1" target="B0XCf1iE3_aSpV2wBJrI-149">
          <mxGeometry width="50" height="50" relative="1" as="geometry">
            <mxPoint x="300" y="2670" as="sourcePoint" />
            <mxPoint x="350" y="2620" as="targetPoint" />
          </mxGeometry>
        </mxCell>
        <mxCell id="B0XCf1iE3_aSpV2wBJrI-158" value="" style="endArrow=none;html=1;rounded=0;" edge="1" parent="1">
          <mxGeometry width="50" height="50" relative="1" as="geometry">
            <mxPoint x="520" y="2670" as="sourcePoint" />
            <mxPoint x="540" y="2670" as="targetPoint" />
          </mxGeometry>
        </mxCell>
        <mxCell id="B0XCf1iE3_aSpV2wBJrI-159" value="" style="endArrow=none;html=1;rounded=0;" edge="1" parent="1">
          <mxGeometry width="50" height="50" relative="1" as="geometry">
            <mxPoint x="540" y="2670" as="sourcePoint" />
            <mxPoint x="540" y="2780" as="targetPoint" />
          </mxGeometry>
        </mxCell>
        <mxCell id="B0XCf1iE3_aSpV2wBJrI-160" value="" style="endArrow=none;html=1;rounded=0;" edge="1" parent="1">
          <mxGeometry width="50" height="50" relative="1" as="geometry">
            <mxPoint x="420" y="2780" as="sourcePoint" />
            <mxPoint x="540" y="2780" as="targetPoint" />
          </mxGeometry>
        </mxCell>
        <mxCell id="B0XCf1iE3_aSpV2wBJrI-161" value="" style="endArrow=classic;html=1;rounded=0;" edge="1" parent="1">
          <mxGeometry width="50" height="50" relative="1" as="geometry">
            <mxPoint x="420" y="2780" as="sourcePoint" />
            <mxPoint x="420" y="2800" as="targetPoint" />
          </mxGeometry>
        </mxCell>
        <mxCell id="B0XCf1iE3_aSpV2wBJrI-162" value="&lt;font style=&quot;font-size: 12px;&quot; face=&quot;Times New Roman&quot;&gt;$&quot;\nКоличество чисел: {numbers.Count}&quot;&lt;/font&gt;" style="shape=document;whiteSpace=wrap;html=1;boundedLbl=1;" vertex="1" parent="1">
          <mxGeometry x="320" y="2790" width="200" height="50" as="geometry" />
        </mxCell>
        <mxCell id="B0XCf1iE3_aSpV2wBJrI-165" value="" style="endArrow=classic;html=1;rounded=0;entryX=0.5;entryY=0;entryDx=0;entryDy=0;" edge="1" parent="1" target="B0XCf1iE3_aSpV2wBJrI-166">
          <mxGeometry width="50" height="50" relative="1" as="geometry">
            <mxPoint x="420" y="2832" as="sourcePoint" />
            <mxPoint x="420" y="2850" as="targetPoint" />
          </mxGeometry>
        </mxCell>
        <mxCell id="B0XCf1iE3_aSpV2wBJrI-166" value="&lt;font face=&quot;Times New Roman&quot;&gt;$&quot;Сумма чисел: {sum}&quot;&lt;/font&gt;" style="shape=document;whiteSpace=wrap;html=1;boundedLbl=1;" vertex="1" parent="1">
          <mxGeometry x="320" y="2850" width="200" height="50" as="geometry" />
        </mxCell>
        <mxCell id="B0XCf1iE3_aSpV2wBJrI-167" value="" style="endArrow=classic;html=1;rounded=0;exitX=0.502;exitY=0.857;exitDx=0;exitDy=0;exitPerimeter=0;" edge="1" parent="1" source="B0XCf1iE3_aSpV2wBJrI-166">
          <mxGeometry width="50" height="50" relative="1" as="geometry">
            <mxPoint x="370" y="2970" as="sourcePoint" />
            <mxPoint x="420" y="2920" as="targetPoint" />
          </mxGeometry>
        </mxCell>
        <mxCell id="B0XCf1iE3_aSpV2wBJrI-168" value="" style="endArrow=classic;html=1;rounded=0;" edge="1" parent="1">
          <mxGeometry width="50" height="50" relative="1" as="geometry">
            <mxPoint x="700" y="1900" as="sourcePoint" />
            <mxPoint x="700" y="2200" as="targetPoint" />
          </mxGeometry>
        </mxCell>
        <mxCell id="B0XCf1iE3_aSpV2wBJrI-169" value="" style="endArrow=none;html=1;rounded=0;entryX=0.501;entryY=0.843;entryDx=0;entryDy=0;entryPerimeter=0;" edge="1" parent="1" target="B0XCf1iE3_aSpV2wBJrI-111">
          <mxGeometry width="50" height="50" relative="1" as="geometry">
            <mxPoint x="700" y="2900" as="sourcePoint" />
            <mxPoint x="710" y="2260" as="targetPoint" />
          </mxGeometry>
        </mxCell>
        <mxCell id="B0XCf1iE3_aSpV2wBJrI-170" value="" style="endArrow=classic;html=1;rounded=0;" edge="1" parent="1">
          <mxGeometry width="50" height="50" relative="1" as="geometry">
            <mxPoint x="700" y="2900" as="sourcePoint" />
            <mxPoint x="420" y="2900" as="targetPoint" />
          </mxGeometry>
        </mxCell>
        <mxCell id="B0XCf1iE3_aSpV2wBJrI-171" value="&lt;font face=&quot;Times New Roman&quot;&gt;&lt;span style=&quot;font-size: 14px;&quot;&gt;Конец&lt;/span&gt;&lt;/font&gt;" style="ellipse;whiteSpace=wrap;html=1;" vertex="1" parent="1">
          <mxGeometry x="320" y="2920" width="200" height="40" as="geometry" />
        </mxCell>
        <mxCell id="B0XCf1iE3_aSpV2wBJrI-172" value="&lt;font style=&quot;font-size: 14px;&quot; face=&quot;Times New Roman&quot;&gt;1&lt;/font&gt;" style="text;html=1;align=center;verticalAlign=middle;resizable=0;points=[];autosize=1;strokeColor=none;fillColor=none;" vertex="1" parent="1">
          <mxGeometry x="200" y="10" width="30" height="30" as="geometry" />
        </mxCell>
        <mxCell id="B0XCf1iE3_aSpV2wBJrI-173" value="&lt;font style=&quot;font-size: 14px;&quot; face=&quot;Times New Roman&quot;&gt;2&lt;/font&gt;" style="text;html=1;align=center;verticalAlign=middle;resizable=0;points=[];autosize=1;strokeColor=none;fillColor=none;" vertex="1" parent="1">
          <mxGeometry x="200" y="170" width="30" height="30" as="geometry" />
        </mxCell>
        <mxCell id="B0XCf1iE3_aSpV2wBJrI-174" value="&lt;font style=&quot;font-size: 14px;&quot; face=&quot;Times New Roman&quot;&gt;3&lt;/font&gt;" style="text;html=1;align=center;verticalAlign=middle;resizable=0;points=[];autosize=1;strokeColor=none;fillColor=none;" vertex="1" parent="1">
          <mxGeometry x="200" y="250" width="30" height="30" as="geometry" />
        </mxCell>
        <mxCell id="B0XCf1iE3_aSpV2wBJrI-175" value="&lt;font style=&quot;font-size: 14px;&quot; face=&quot;Times New Roman&quot;&gt;4&lt;/font&gt;" style="text;html=1;align=center;verticalAlign=middle;resizable=0;points=[];autosize=1;strokeColor=none;fillColor=none;" vertex="1" parent="1">
          <mxGeometry x="200" y="290" width="30" height="30" as="geometry" />
        </mxCell>
        <mxCell id="B0XCf1iE3_aSpV2wBJrI-176" value="&lt;font style=&quot;font-size: 14px;&quot; face=&quot;Times New Roman&quot;&gt;5&lt;/font&gt;" style="text;html=1;align=center;verticalAlign=middle;resizable=0;points=[];autosize=1;strokeColor=none;fillColor=none;" vertex="1" parent="1">
          <mxGeometry x="200" y="330" width="30" height="30" as="geometry" />
        </mxCell>
        <mxCell id="B0XCf1iE3_aSpV2wBJrI-177" value="&lt;font style=&quot;font-size: 14px;&quot; face=&quot;Times New Roman&quot;&gt;6&lt;/font&gt;" style="text;html=1;align=center;verticalAlign=middle;resizable=0;points=[];autosize=1;strokeColor=none;fillColor=none;" vertex="1" parent="1">
          <mxGeometry x="200" y="370" width="30" height="30" as="geometry" />
        </mxCell>
        <mxCell id="B0XCf1iE3_aSpV2wBJrI-178" value="&lt;font style=&quot;font-size: 14px;&quot; face=&quot;Times New Roman&quot;&gt;7&lt;/font&gt;" style="text;html=1;align=center;verticalAlign=middle;resizable=0;points=[];autosize=1;strokeColor=none;fillColor=none;" vertex="1" parent="1">
          <mxGeometry x="200" y="490" width="30" height="30" as="geometry" />
        </mxCell>
        <mxCell id="B0XCf1iE3_aSpV2wBJrI-179" value="&lt;font style=&quot;font-size: 14px;&quot; face=&quot;Times New Roman&quot;&gt;8&lt;/font&gt;" style="text;html=1;align=center;verticalAlign=middle;resizable=0;points=[];autosize=1;strokeColor=none;fillColor=none;" vertex="1" parent="1">
          <mxGeometry x="200" y="575" width="30" height="30" as="geometry" />
        </mxCell>
        <mxCell id="B0XCf1iE3_aSpV2wBJrI-180" value="&lt;font style=&quot;font-size: 14px;&quot; face=&quot;Times New Roman&quot;&gt;9&lt;/font&gt;" style="text;html=1;align=center;verticalAlign=middle;resizable=0;points=[];autosize=1;strokeColor=none;fillColor=none;" vertex="1" parent="1">
          <mxGeometry x="200" y="655" width="30" height="30" as="geometry" />
        </mxCell>
        <mxCell id="B0XCf1iE3_aSpV2wBJrI-181" value="&lt;font style=&quot;font-size: 14px;&quot; face=&quot;Times New Roman&quot;&gt;10&lt;/font&gt;" style="text;html=1;align=center;verticalAlign=middle;resizable=0;points=[];autosize=1;strokeColor=none;fillColor=none;" vertex="1" parent="1">
          <mxGeometry x="195" y="730" width="40" height="30" as="geometry" />
        </mxCell>
        <mxCell id="B0XCf1iE3_aSpV2wBJrI-182" value="&lt;font style=&quot;font-size: 14px;&quot; face=&quot;Times New Roman&quot;&gt;11&lt;/font&gt;" style="text;html=1;align=center;verticalAlign=middle;resizable=0;points=[];autosize=1;strokeColor=none;fillColor=none;" vertex="1" parent="1">
          <mxGeometry x="195" y="775" width="40" height="30" as="geometry" />
        </mxCell>
        <mxCell id="B0XCf1iE3_aSpV2wBJrI-183" value="&lt;font style=&quot;font-size: 14px;&quot; face=&quot;Times New Roman&quot;&gt;12&lt;/font&gt;" style="text;html=1;align=center;verticalAlign=middle;resizable=0;points=[];autosize=1;strokeColor=none;fillColor=none;" vertex="1" parent="1">
          <mxGeometry x="195" y="890" width="40" height="30" as="geometry" />
        </mxCell>
        <mxCell id="B0XCf1iE3_aSpV2wBJrI-184" value="&lt;font style=&quot;font-size: 14px;&quot; face=&quot;Times New Roman&quot;&gt;13&lt;/font&gt;" style="text;html=1;align=center;verticalAlign=middle;resizable=0;points=[];autosize=1;strokeColor=none;fillColor=none;" vertex="1" parent="1">
          <mxGeometry x="195" y="975" width="40" height="30" as="geometry" />
        </mxCell>
        <mxCell id="B0XCf1iE3_aSpV2wBJrI-185" value="&lt;font style=&quot;font-size: 14px;&quot; face=&quot;Times New Roman&quot;&gt;14&lt;/font&gt;" style="text;html=1;align=center;verticalAlign=middle;resizable=0;points=[];autosize=1;strokeColor=none;fillColor=none;" vertex="1" parent="1">
          <mxGeometry x="195" y="1050" width="40" height="30" as="geometry" />
        </mxCell>
        <mxCell id="B0XCf1iE3_aSpV2wBJrI-186" value="&lt;font style=&quot;font-size: 14px;&quot; face=&quot;Times New Roman&quot;&gt;15&lt;/font&gt;" style="text;html=1;align=center;verticalAlign=middle;resizable=0;points=[];autosize=1;strokeColor=none;fillColor=none;" vertex="1" parent="1">
          <mxGeometry x="195" y="1290" width="40" height="30" as="geometry" />
        </mxCell>
        <mxCell id="B0XCf1iE3_aSpV2wBJrI-187" value="&lt;font style=&quot;font-size: 14px;&quot; face=&quot;Times New Roman&quot;&gt;16&lt;/font&gt;" style="text;html=1;align=center;verticalAlign=middle;resizable=0;points=[];autosize=1;strokeColor=none;fillColor=none;" vertex="1" parent="1">
          <mxGeometry x="195" y="1375" width="40" height="30" as="geometry" />
        </mxCell>
        <mxCell id="B0XCf1iE3_aSpV2wBJrI-188" value="&lt;font style=&quot;font-size: 14px;&quot; face=&quot;Times New Roman&quot;&gt;17&lt;/font&gt;" style="text;html=1;align=center;verticalAlign=middle;resizable=0;points=[];autosize=1;strokeColor=none;fillColor=none;" vertex="1" parent="1">
          <mxGeometry x="195" y="1450" width="40" height="30" as="geometry" />
        </mxCell>
        <mxCell id="B0XCf1iE3_aSpV2wBJrI-189" value="&lt;font style=&quot;font-size: 14px;&quot; face=&quot;Times New Roman&quot;&gt;18&lt;/font&gt;" style="text;html=1;align=center;verticalAlign=middle;resizable=0;points=[];autosize=1;strokeColor=none;fillColor=none;" vertex="1" parent="1">
          <mxGeometry x="195" y="1495" width="40" height="30" as="geometry" />
        </mxCell>
        <mxCell id="B0XCf1iE3_aSpV2wBJrI-190" value="&lt;font style=&quot;font-size: 14px;&quot; face=&quot;Times New Roman&quot;&gt;19&lt;/font&gt;" style="text;html=1;align=center;verticalAlign=middle;resizable=0;points=[];autosize=1;strokeColor=none;fillColor=none;" vertex="1" parent="1">
          <mxGeometry x="195" y="1545" width="40" height="30" as="geometry" />
        </mxCell>
        <mxCell id="B0XCf1iE3_aSpV2wBJrI-191" value="&lt;font style=&quot;font-size: 14px;&quot; face=&quot;Times New Roman&quot;&gt;20&lt;/font&gt;" style="text;html=1;align=center;verticalAlign=middle;resizable=0;points=[];autosize=1;strokeColor=none;fillColor=none;" vertex="1" parent="1">
          <mxGeometry x="320" y="1568" width="40" height="30" as="geometry" />
        </mxCell>
        <mxCell id="B0XCf1iE3_aSpV2wBJrI-193" value="&lt;font style=&quot;font-size: 14px;&quot; face=&quot;Times New Roman&quot;&gt;21&lt;/font&gt;" style="text;html=1;align=center;verticalAlign=middle;resizable=0;points=[];autosize=1;strokeColor=none;fillColor=none;" vertex="1" parent="1">
          <mxGeometry x="670" y="1575" width="40" height="30" as="geometry" />
        </mxCell>
        <mxCell id="B0XCf1iE3_aSpV2wBJrI-194" value="&lt;font style=&quot;font-size: 14px;&quot; face=&quot;Times New Roman&quot;&gt;22&lt;/font&gt;" style="text;html=1;align=center;verticalAlign=middle;resizable=0;points=[];autosize=1;strokeColor=none;fillColor=none;" vertex="1" parent="1">
          <mxGeometry x="195" y="1730" width="40" height="30" as="geometry" />
        </mxCell>
        <mxCell id="B0XCf1iE3_aSpV2wBJrI-197" value="метод&amp;nbsp;ReadAndProcessFile" style="text;html=1;align=center;verticalAlign=middle;resizable=0;points=[];autosize=1;strokeColor=none;fillColor=none;" vertex="1" parent="1">
          <mxGeometry x="335" y="1770" width="170" height="30" as="geometry" />
        </mxCell>
        <mxCell id="B0XCf1iE3_aSpV2wBJrI-198" value="&lt;font style=&quot;font-size: 14px;&quot; face=&quot;Times New Roman&quot;&gt;20.1&lt;/font&gt;" style="text;html=1;align=center;verticalAlign=middle;resizable=0;points=[];autosize=1;strokeColor=none;fillColor=none;" vertex="1" parent="1">
          <mxGeometry x="190" y="1810" width="50" height="30" as="geometry" />
        </mxCell>
        <mxCell id="B0XCf1iE3_aSpV2wBJrI-209" value="&lt;font style=&quot;font-size: 14px;&quot; face=&quot;Times New Roman&quot;&gt;20.2&lt;/font&gt;" style="text;html=1;align=center;verticalAlign=middle;resizable=0;points=[];autosize=1;strokeColor=none;fillColor=none;" vertex="1" parent="1">
          <mxGeometry x="190" y="1890" width="50" height="30" as="geometry" />
        </mxCell>
        <mxCell id="B0XCf1iE3_aSpV2wBJrI-210" value="&lt;font style=&quot;font-size: 14px;&quot; face=&quot;Times New Roman&quot;&gt;20.3&lt;/font&gt;" style="text;html=1;align=center;verticalAlign=middle;resizable=0;points=[];autosize=1;strokeColor=none;fillColor=none;" vertex="1" parent="1">
          <mxGeometry x="190" y="2010" width="50" height="30" as="geometry" />
        </mxCell>
        <mxCell id="B0XCf1iE3_aSpV2wBJrI-211" value="&lt;font style=&quot;font-size: 14px;&quot; face=&quot;Times New Roman&quot;&gt;20.4&lt;/font&gt;" style="text;html=1;align=center;verticalAlign=middle;resizable=0;points=[];autosize=1;strokeColor=none;fillColor=none;" vertex="1" parent="1">
          <mxGeometry x="190" y="2090" width="50" height="30" as="geometry" />
        </mxCell>
        <mxCell id="B0XCf1iE3_aSpV2wBJrI-212" value="&lt;font style=&quot;font-size: 14px;&quot; face=&quot;Times New Roman&quot;&gt;20.5&lt;/font&gt;" style="text;html=1;align=center;verticalAlign=middle;resizable=0;points=[];autosize=1;strokeColor=none;fillColor=none;" vertex="1" parent="1">
          <mxGeometry x="190" y="2130" width="50" height="30" as="geometry" />
        </mxCell>
        <mxCell id="B0XCf1iE3_aSpV2wBJrI-213" value="&lt;font style=&quot;font-size: 14px;&quot; face=&quot;Times New Roman&quot;&gt;20.6&lt;/font&gt;" style="text;html=1;align=center;verticalAlign=middle;resizable=0;points=[];autosize=1;strokeColor=none;fillColor=none;" vertex="1" parent="1">
          <mxGeometry x="190" y="2210" width="50" height="30" as="geometry" />
        </mxCell>
        <mxCell id="B0XCf1iE3_aSpV2wBJrI-214" value="&lt;font style=&quot;font-size: 14px;&quot; face=&quot;Times New Roman&quot;&gt;20.7&lt;/font&gt;" style="text;html=1;align=center;verticalAlign=middle;resizable=0;points=[];autosize=1;strokeColor=none;fillColor=none;" vertex="1" parent="1">
          <mxGeometry x="190" y="2330" width="50" height="30" as="geometry" />
        </mxCell>
        <mxCell id="B0XCf1iE3_aSpV2wBJrI-215" value="&lt;font style=&quot;font-size: 14px;&quot; face=&quot;Times New Roman&quot;&gt;20.8&lt;/font&gt;" style="text;html=1;align=center;verticalAlign=middle;resizable=0;points=[];autosize=1;strokeColor=none;fillColor=none;" vertex="1" parent="1">
          <mxGeometry x="190" y="2410" width="50" height="30" as="geometry" />
        </mxCell>
        <mxCell id="B0XCf1iE3_aSpV2wBJrI-216" value="&lt;font style=&quot;font-size: 14px;&quot; face=&quot;Times New Roman&quot;&gt;20.9&lt;/font&gt;" style="text;html=1;align=center;verticalAlign=middle;resizable=0;points=[];autosize=1;strokeColor=none;fillColor=none;" vertex="1" parent="1">
          <mxGeometry x="190" y="2490" width="50" height="30" as="geometry" />
        </mxCell>
        <mxCell id="B0XCf1iE3_aSpV2wBJrI-217" value="&lt;font style=&quot;font-size: 14px;&quot; face=&quot;Times New Roman&quot;&gt;20.10&lt;/font&gt;" style="text;html=1;align=center;verticalAlign=middle;resizable=0;points=[];autosize=1;strokeColor=none;fillColor=none;" vertex="1" parent="1">
          <mxGeometry x="185" y="2570" width="60" height="30" as="geometry" />
        </mxCell>
        <mxCell id="B0XCf1iE3_aSpV2wBJrI-218" value="&lt;font style=&quot;font-size: 14px;&quot; face=&quot;Times New Roman&quot;&gt;20.11&lt;/font&gt;" style="text;html=1;align=center;verticalAlign=middle;resizable=0;points=[];autosize=1;strokeColor=none;fillColor=none;" vertex="1" parent="1">
          <mxGeometry x="190" y="2610" width="50" height="30" as="geometry" />
        </mxCell>
        <mxCell id="B0XCf1iE3_aSpV2wBJrI-219" value="&lt;font style=&quot;font-size: 14px;&quot; face=&quot;Times New Roman&quot;&gt;20.12&lt;/font&gt;" style="text;html=1;align=center;verticalAlign=middle;resizable=0;points=[];autosize=1;strokeColor=none;fillColor=none;" vertex="1" parent="1">
          <mxGeometry x="185" y="2650" width="60" height="30" as="geometry" />
        </mxCell>
        <mxCell id="B0XCf1iE3_aSpV2wBJrI-220" value="&lt;font style=&quot;font-size: 14px;&quot; face=&quot;Times New Roman&quot;&gt;20.13&lt;/font&gt;" style="text;html=1;align=center;verticalAlign=middle;resizable=0;points=[];autosize=1;strokeColor=none;fillColor=none;" vertex="1" parent="1">
          <mxGeometry x="185" y="2690" width="60" height="30" as="geometry" />
        </mxCell>
        <mxCell id="B0XCf1iE3_aSpV2wBJrI-221" value="&lt;font style=&quot;font-size: 14px;&quot; face=&quot;Times New Roman&quot;&gt;20.14&lt;/font&gt;" style="text;html=1;align=center;verticalAlign=middle;resizable=0;points=[];autosize=1;strokeColor=none;fillColor=none;" vertex="1" parent="1">
          <mxGeometry x="185" y="2730" width="60" height="30" as="geometry" />
        </mxCell>
        <mxCell id="B0XCf1iE3_aSpV2wBJrI-222" value="&lt;font style=&quot;font-size: 14px;&quot; face=&quot;Times New Roman&quot;&gt;20.15&lt;/font&gt;" style="text;html=1;align=center;verticalAlign=middle;resizable=0;points=[];autosize=1;strokeColor=none;fillColor=none;" vertex="1" parent="1">
          <mxGeometry x="185" y="2810" width="60" height="30" as="geometry" />
        </mxCell>
        <mxCell id="B0XCf1iE3_aSpV2wBJrI-223" value="&lt;font style=&quot;font-size: 14px;&quot; face=&quot;Times New Roman&quot;&gt;20.16&lt;/font&gt;" style="text;html=1;align=center;verticalAlign=middle;resizable=0;points=[];autosize=1;strokeColor=none;fillColor=none;" vertex="1" parent="1">
          <mxGeometry x="185" y="2870" width="60" height="30" as="geometry" />
        </mxCell>
        <mxCell id="B0XCf1iE3_aSpV2wBJrI-224" value="&lt;font style=&quot;font-size: 14px;&quot; face=&quot;Times New Roman&quot;&gt;20.17&lt;/font&gt;" style="text;html=1;align=center;verticalAlign=middle;resizable=0;points=[];autosize=1;strokeColor=none;fillColor=none;" vertex="1" parent="1">
          <mxGeometry x="190" y="2930" width="60" height="30" as="geometry" />
        </mxCell>
        <mxCell id="B0XCf1iE3_aSpV2wBJrI-225" value="&lt;font style=&quot;font-size: 14px;&quot; face=&quot;Times New Roman&quot;&gt;20.18&lt;/font&gt;" style="text;html=1;align=center;verticalAlign=middle;resizable=0;points=[];autosize=1;strokeColor=none;fillColor=none;" vertex="1" parent="1">
          <mxGeometry x="600" y="2160" width="60" height="30" as="geometry" />
        </mxCell>
        <mxCell id="B0XCf1iE3_aSpV2wBJrI-226" value="&lt;font style=&quot;font-size: 14px;&quot; face=&quot;Times New Roman&quot;&gt;True&lt;/font&gt;" style="text;html=1;align=center;verticalAlign=middle;resizable=0;points=[];autosize=1;strokeColor=none;fillColor=none;" vertex="1" parent="1">
          <mxGeometry x="414" y="2112.5" width="50" height="30" as="geometry" />
        </mxCell>
        <mxCell id="B0XCf1iE3_aSpV2wBJrI-227" value="&lt;font style=&quot;font-size: 14px;&quot; face=&quot;Times New Roman&quot;&gt;False&lt;/font&gt;" style="text;html=1;align=center;verticalAlign=middle;resizable=0;points=[];autosize=1;strokeColor=none;fillColor=none;" vertex="1" parent="1">
          <mxGeometry x="507" y="2067.5" width="50" height="30" as="geometry" />
        </mxCell>
        <mxCell id="B0XCf1iE3_aSpV2wBJrI-228" value="&lt;font style=&quot;font-size: 14px;&quot; face=&quot;Times New Roman&quot;&gt;True&lt;/font&gt;" style="text;html=1;align=center;verticalAlign=middle;resizable=0;points=[];autosize=1;strokeColor=none;fillColor=none;" vertex="1" parent="1">
          <mxGeometry x="416" y="2227.5" width="50" height="30" as="geometry" />
        </mxCell>
        <mxCell id="B0XCf1iE3_aSpV2wBJrI-229" value="&lt;font style=&quot;font-size: 14px;&quot; face=&quot;Times New Roman&quot;&gt;False&lt;/font&gt;" style="text;html=1;align=center;verticalAlign=middle;resizable=0;points=[];autosize=1;strokeColor=none;fillColor=none;" vertex="1" parent="1">
          <mxGeometry x="509" y="2182.5" width="50" height="30" as="geometry" />
        </mxCell>
        <mxCell id="B0XCf1iE3_aSpV2wBJrI-230" value="&lt;font style=&quot;font-size: 14px;&quot; face=&quot;Times New Roman&quot;&gt;True&lt;/font&gt;" style="text;html=1;align=center;verticalAlign=middle;resizable=0;points=[];autosize=1;strokeColor=none;fillColor=none;" vertex="1" parent="1">
          <mxGeometry x="417" y="2350" width="50" height="30" as="geometry" />
        </mxCell>
        <mxCell id="B0XCf1iE3_aSpV2wBJrI-231" value="&lt;font style=&quot;font-size: 14px;&quot; face=&quot;Times New Roman&quot;&gt;False&lt;/font&gt;" style="text;html=1;align=center;verticalAlign=middle;resizable=0;points=[];autosize=1;strokeColor=none;fillColor=none;" vertex="1" parent="1">
          <mxGeometry x="509" y="2280" width="50" height="30" as="geometry" />
        </mxCell>
        <mxCell id="B0XCf1iE3_aSpV2wBJrI-232" value="" style="endArrow=none;html=1;rounded=0;exitX=1;exitY=0;exitDx=0;exitDy=0;" edge="1" parent="1" source="B0XCf1iE3_aSpV2wBJrI-124">
          <mxGeometry width="50" height="50" relative="1" as="geometry">
            <mxPoint x="460" y="2200" as="sourcePoint" />
            <mxPoint x="720" y="2080" as="targetPoint" />
          </mxGeometry>
        </mxCell>
        <mxCell id="B0XCf1iE3_aSpV2wBJrI-233" value="" style="endArrow=none;html=1;rounded=0;" edge="1" parent="1">
          <mxGeometry width="50" height="50" relative="1" as="geometry">
            <mxPoint x="720" y="2010" as="sourcePoint" />
            <mxPoint x="720" y="2160" as="targetPoint" />
          </mxGeometry>
        </mxCell>
        <mxCell id="B0XCf1iE3_aSpV2wBJrI-234" value="&lt;div style=&quot;font-size: 14px;&quot;&gt;&lt;font style=&quot;font-size: 14px;&quot; face=&quot;Times New Roman&quot;&gt;char.IsDigit(part[0]) &amp;amp;&amp;amp;&lt;/font&gt;&lt;/div&gt;&lt;div style=&quot;font-size: 14px;&quot;&gt;&lt;font style=&quot;font-size: 14px;&quot; face=&quot;hKFwfX1rNxezxivxDYjR&quot;&gt;&amp;nbsp;part[1] == &#39;.&#39; &amp;amp;&amp;amp;&lt;/font&gt;&lt;/div&gt;&lt;div style=&quot;font-size: 14px;&quot;&gt;&lt;font style=&quot;font-size: 14px;&quot; face=&quot;hKFwfX1rNxezxivxDYjR&quot;&gt;char.IsDigit(part[2]) &amp;amp;&amp;amp;&lt;/font&gt;&lt;/div&gt;&lt;div style=&quot;font-size: 14px;&quot;&gt;&lt;font style=&quot;font-size: 14px;&quot; face=&quot;hKFwfX1rNxezxivxDYjR&quot;&gt;&amp;nbsp;char.IsDigit(part[3]) &amp;amp;&amp;amp;&lt;/font&gt;&lt;/div&gt;&lt;div style=&quot;font-size: 14px;&quot;&gt;&lt;font style=&quot;font-size: 14px;&quot; face=&quot;hKFwfX1rNxezxivxDYjR&quot;&gt;&amp;nbsp;char.IsDigit(part[4]) &amp;amp;&amp;amp;&amp;nbsp;&lt;/font&gt;&lt;/div&gt;&lt;div style=&quot;font-size: 14px;&quot;&gt;&lt;font style=&quot;font-size: 14px;&quot; face=&quot;hKFwfX1rNxezxivxDYjR&quot;&gt;char.IsDigit(part[5]) &amp;amp;&amp;amp;&lt;/font&gt;&lt;/div&gt;&lt;div style=&quot;font-size: 14px;&quot;&gt;&lt;font style=&quot;font-size: 14px;&quot; face=&quot;hKFwfX1rNxezxivxDYjR&quot;&gt;&amp;nbsp;char.IsDigit(part[6]) &amp;amp;&amp;amp;&amp;nbsp;&lt;/font&gt;&lt;/div&gt;&lt;div style=&quot;font-size: 14px;&quot;&gt;&lt;font style=&quot;font-size: 14px;&quot; face=&quot;hKFwfX1rNxezxivxDYjR&quot;&gt;char.IsDigit(part[7])&lt;/font&gt;&lt;/div&gt;" style="text;html=1;align=left;verticalAlign=middle;resizable=0;points=[];autosize=1;strokeColor=none;fillColor=none;" vertex="1" parent="1">
          <mxGeometry x="730" y="2007.5" width="170" height="150" as="geometry" />
        </mxCell>
        <mxCell id="B0XCf1iE3_aSpV2wBJrI-235" value="" style="endArrow=none;html=1;rounded=0;entryX=0.703;entryY=0.023;entryDx=0;entryDy=0;entryPerimeter=0;" edge="1" parent="1" target="B0XCf1iE3_aSpV2wBJrI-234">
          <mxGeometry width="50" height="50" relative="1" as="geometry">
            <mxPoint x="720" y="2010" as="sourcePoint" />
            <mxPoint x="770" y="1960" as="targetPoint" />
          </mxGeometry>
        </mxCell>
        <mxCell id="B0XCf1iE3_aSpV2wBJrI-236" value="" style="endArrow=none;html=1;rounded=0;entryX=0.703;entryY=1.002;entryDx=0;entryDy=0;entryPerimeter=0;" edge="1" parent="1" target="B0XCf1iE3_aSpV2wBJrI-234">
          <mxGeometry width="50" height="50" relative="1" as="geometry">
            <mxPoint x="720" y="2160" as="sourcePoint" />
            <mxPoint x="770" y="2110" as="targetPoint" />
          </mxGeometry>
        </mxCell>
      </root>
    </mxGraphModel>
  </diagram>
</mxfile>
